<svg width="156" height="204" viewBox="0 0 156 204" fill="none" xmlns="http://www.w3.org/2000/svg">
<g clip-path="url(#clip0_39_1111)">
<path d="M123.829 182.351C132.876 182.791 141.977 181.018 150.851 182.764C152.94 183.177 155.361 184.017 155.907 186.07C156.333 187.697 155.348 189.35 154.27 190.643C149.081 196.908 141.059 200.294 132.982 201.467C123.545 202.654 114.048 203.295 104.537 203.387C84.6857 203.52 62.706 206.053 55.3085 199.761C49.747 194.948 62.1472 179.351 123.829 182.351Z" fill="black"/>
<path d="M28.2063 154.956C28.2063 153.317 24.7603 152.224 21.7002 154.956C20.5216 155.869 19.6566 157.127 19.2255 158.556C17.0361 163.788 16.2322 169.499 16.8919 175.135C17.5515 180.77 19.6523 186.139 22.9908 190.723C23.6416 191.702 24.5003 192.526 25.5055 193.135C26.9961 193.764 28.6191 194.011 30.2287 193.855C43.3207 193.855 56.2131 196.895 69.2785 197.855C79.9171 198.453 90.5832 198.364 101.21 197.588C105.37 197.583 109.506 196.949 113.477 195.708C118.44 193.855 127.022 173.793 127.9 172.046C128.778 170.3 130.082 162.928 130.148 160.782C130.441 150.85 130.268 136.307 127.9 129.241C125.665 122.576 114.701 91.7154 113.61 83.0904C111.907 69.4131 110.271 55.5891 105.787 42.5517C105.11 40.9241 104.663 39.2103 104.457 37.4594C104.27 33.9401 106.186 30.714 107.198 27.3547C108.209 23.9953 107.916 19.5695 104.803 18.0231C102.674 16.93 100.119 17.6099 97.8575 18.3298C85.3375 22.2357 70.4095 24.7419 58.1424 30.1675C52.0753 32.8336 43.7464 40.1255 42.4293 41.0186C36.3888 45.0978 23.6161 78.7179 27.5943 97.2743L28.2063 154.956Z" fill="#846FA0"/>
<path d="M68.986 83.3437C69.292 82.2069 69.7867 81.1298 70.4495 80.1576C70.9886 79.4684 71.5755 78.818 72.2058 78.2113C73.1553 77.3039 74.15 76.4452 75.1861 75.6385C76.0587 74.9913 76.9794 74.412 77.9402 73.9055C79.0179 73.3456 80.1355 72.8924 81.2398 72.3858C81.3591 72.3192 81.4634 72.2284 81.5459 72.1192C81.7027 71.9277 81.9137 71.7882 82.1512 71.7192C82.3887 71.6502 82.6416 71.6549 82.8763 71.7326C83.9549 71.9642 84.9944 72.3503 85.963 72.879C86.9263 73.4058 87.798 74.0856 88.5442 74.892C90.0817 76.5569 91.1954 78.569 91.7906 80.7575C92.0044 81.6728 92.138 82.605 92.1898 83.5436C92.2696 84.5168 92.2828 85.5032 92.2828 86.4764C92.297 86.9902 92.2569 87.5041 92.1631 88.0094C91.9738 88.9123 91.7295 89.8027 91.4314 90.6756C90.9814 91.7329 90.2608 92.6526 89.3425 93.3417C88.4164 94.1642 87.322 94.7739 86.136 95.128C85.1745 95.4141 84.1835 95.5886 83.1823 95.6479C82.0708 95.7345 80.9543 95.7345 79.8428 95.6479C78.7882 95.5562 77.7619 95.2572 76.8225 94.7681C75.7582 94.1949 74.6805 93.6216 73.6427 92.9951C72.605 92.3685 71.4873 91.662 70.4362 90.9288C69.525 90.3388 68.8273 89.4708 68.4464 88.4529C68.0654 87.4351 68.0214 86.3215 68.3208 85.2766C68.4937 84.5568 68.7465 83.9569 68.986 83.3437Z" fill="#F2B322"/>
<path d="M45.3829 83.317C45.642 84.1368 45.642 85.0167 45.3829 85.8365C45.0819 86.7789 44.4604 87.5857 43.6267 88.1161C42.7353 88.7159 41.8305 89.3158 40.9657 89.8757C40.1009 90.4356 39.1828 90.8888 38.3047 91.3821C37.507 91.7978 36.6334 92.0473 35.7368 92.1153C34.7894 92.1952 33.837 92.1952 32.8896 92.1153C32.0422 92.0619 31.2032 91.9143 30.3883 91.6753C29.4042 91.3625 28.4974 90.8446 27.7273 90.1557C26.9451 89.5643 26.3305 88.7785 25.9444 87.8761C25.7001 87.1457 25.4958 86.4026 25.3324 85.6499C25.2474 85.2109 25.2116 84.7637 25.226 84.3168C25.226 83.477 25.226 82.6505 25.3058 81.824C25.3463 81.0239 25.4622 80.2294 25.6517 79.4511C26.1529 77.594 27.0982 75.8873 28.4059 74.4787C29.0373 73.7929 29.7738 73.2123 30.5878 72.7591C31.4262 72.3142 32.3215 71.9868 33.2488 71.7859C33.4474 71.7282 33.6583 71.7289 33.8565 71.788C34.0546 71.8471 34.2317 71.9621 34.3664 72.1192C34.4338 72.2117 34.52 72.2889 34.6192 72.3458C35.5506 72.7724 36.5085 73.159 37.4132 73.6789C38.2335 74.1009 39.0168 74.5915 39.7549 75.1453C40.6413 75.8268 41.4897 76.5567 42.2962 77.3315C42.8273 77.8504 43.325 78.4025 43.7863 78.9845C44.3406 79.8 44.7586 80.7005 45.0237 81.6507C44.9971 82.2639 45.2232 82.7838 45.3829 83.317Z" fill="#F2B322"/>
<path d="M50.0929 87.7428C53.1703 87.6005 56.2541 87.712 59.3132 88.0761C59.8425 88.0761 60.3501 87.8654 60.7244 87.4904C61.0987 87.1154 61.3089 86.6068 61.3089 86.0765C61.2955 85.5504 61.0809 85.0496 60.7095 84.6774C60.3381 84.3053 59.8383 84.0903 59.3132 84.0769C56.2541 83.7128 53.1703 83.6013 50.0929 83.7436C49.5636 83.7436 49.056 83.9542 48.6817 84.3292C48.3074 84.7042 48.0972 85.2129 48.0972 85.7432C48.0972 86.2735 48.3074 86.7821 48.6817 87.1571C49.056 87.5321 49.5636 87.7428 50.0929 87.7428Z" fill="black"/>
<path d="M47.8443 67.4001L47.525 68.3465C47.4119 68.7384 47.4119 69.1544 47.525 69.5463C47.5397 69.9436 47.659 70.3299 47.871 70.6661C48.0552 71.0054 48.3203 71.2939 48.6426 71.5059C48.9316 71.7705 49.2849 71.9543 49.6671 72.0391L50.4521 72.1458C50.9861 72.1512 51.5111 72.0082 51.9688 71.7326L52.5809 71.266C52.9452 70.8954 53.2067 70.4359 53.3392 69.9329L53.6719 68.9731C53.7781 68.5803 53.7781 68.1662 53.6719 67.7733C53.6568 67.3783 53.5324 66.9952 53.3126 66.6669C53.1326 66.3245 52.8666 66.035 52.5409 65.8271C52.2561 65.5612 51.908 65.373 51.5298 65.2805L50.7315 65.1738C50.1992 65.1811 49.6773 65.3233 49.2147 65.5871L48.616 66.0537C48.2468 66.4227 47.9807 66.8824 47.8443 67.3867V67.4001Z" fill="black"/>
<path d="M66.4315 65.7471L65.8062 66.3869C65.5162 66.6455 65.3003 66.9768 65.1808 67.3468C64.997 67.7046 64.9098 68.1045 64.928 68.5065C64.9084 68.9044 64.9957 69.3004 65.1808 69.653C65.3033 70.0254 65.5186 70.3603 65.8062 70.6261L66.4049 71.0927C66.8652 71.3622 67.3885 71.5047 67.9216 71.5059L68.7066 71.3993C69.21 71.2627 69.6688 70.996 70.0371 70.6261L70.6757 69.9863C70.9589 69.7245 71.1697 69.3939 71.2878 69.0264C71.4622 68.6648 71.5528 68.2683 71.5528 67.8667C71.5528 67.465 71.4622 67.0685 71.2878 66.7069C71.1732 66.3378 70.9618 66.0064 70.6757 65.7471L70.0638 65.2805C69.6102 65.0066 69.0899 64.8636 68.5603 64.8673L67.762 64.9739C67.2611 65.1166 66.8038 65.3824 66.4315 65.7471Z" fill="black"/>
<path d="M65.0478 31.8204V7.38522C65.0805 6.98053 65.0166 6.57388 64.8615 6.1988C64.6009 5.78393 64.2203 5.45842 63.7705 5.26564C60.7521 3.61606 57.3881 2.70265 53.9514 2.59949C52.1182 2.46713 50.2826 2.8212 48.6295 3.62598C47.805 4.03582 47.1007 4.65287 46.5853 5.41689C46.07 6.18092 45.7612 7.06579 45.6891 7.98512C45.6645 8.27265 45.7397 8.5599 45.902 8.79831C46.0845 8.99225 46.3209 9.12688 46.5806 9.18487C52.1717 11.0192 58.2495 10.6571 63.5843 8.17176" fill="#2C8275"/>
<path d="M66.6444 31.8205V10.3047C66.7433 8.97175 66.7121 7.63232 66.5512 6.30546C66.1255 4.13256 63.704 3.30607 61.8679 2.57288C57.6369 0.893208 51.53 -0.173243 47.4321 2.41292C46.5595 2.93823 45.8121 3.64827 45.2421 4.49336C44.6721 5.33845 44.2935 6.29815 44.1325 7.30527C43.7866 10.1047 46.0217 10.7713 48.2969 11.3045C53.7049 12.5038 59.3564 11.8902 64.3825 9.55816C66.2452 8.705 64.622 5.94557 62.7726 6.79874C58.2838 8.87051 53.2226 9.34093 48.43 8.13181C47.9306 8.07065 47.445 7.92647 46.993 7.70521C47.2458 8.18512 47.3655 8.17177 47.3123 7.63854C47.3674 7.36431 47.4615 7.09943 47.5917 6.85203C48.1157 5.91809 48.9486 5.19672 49.9467 4.81243C52.2643 4.08657 54.7371 4.01737 57.0915 4.61248C58.2699 4.8386 59.427 5.16416 60.5507 5.58563C61.2293 5.83892 63.0121 6.35881 63.4378 7.03868C63.6906 7.41194 63.4378 8.73166 63.4378 9.18491V31.8471C63.4378 32.2714 63.6061 32.6783 63.9055 32.9783C64.2049 33.2783 64.611 33.4468 65.0345 33.4468C65.4579 33.4468 65.864 33.2783 66.1634 32.9783C66.4628 32.6783 66.6311 32.2714 66.6311 31.8471L66.6444 31.8205Z" fill="black"/>
<path d="M65.4334 7.02537C69.3439 3.92895 74.0878 2.07229 79.0577 1.69308C79.7721 1.55821 80.5072 1.58015 81.2124 1.75736C81.9175 1.93456 82.5759 2.26281 83.1422 2.71953C84.6324 4.27922 83.7144 7.05202 81.9182 8.22512C79.9962 9.19968 77.8328 9.59337 75.6915 9.35824C71.8597 9.29159 67.5356 8.99834 65.0476 6.09224" fill="#2C8275"/>
<path d="M66.5644 8.1584C68.706 6.49085 71.1184 5.20561 73.6958 4.35914C75.0239 3.92642 76.3857 3.60537 77.7671 3.39933C78.94 3.12623 80.1598 3.12623 81.3328 3.39933C83.3019 4.09252 81.865 6.46542 80.6143 7.09196C79.429 7.57271 78.1527 7.78656 76.8757 7.71847C75.6383 7.71847 74.4009 7.71848 73.1635 7.61184C70.609 7.43854 67.9348 6.90531 66.1519 4.94569C64.8214 3.41266 62.5197 5.69223 63.8901 7.21193C66.0987 9.66479 69.3318 10.4913 72.4851 10.7846C75.6383 11.0778 79.4701 11.3711 82.344 9.8114C85.0049 8.39834 86.5483 4.66574 84.6723 2.06625C82.5568 -0.866504 78.0199 -7.26432e-06 75.0396 0.733182C71.1517 1.65369 67.5134 3.41949 64.3823 5.90551C64.085 6.20738 63.9182 6.61447 63.9182 7.03863C63.9182 7.46278 64.085 7.86987 64.3823 8.17175C64.6862 8.45956 65.0884 8.6199 65.5066 8.6199C65.9247 8.6199 66.327 8.45956 66.6309 8.17175L66.5644 8.1584Z" fill="black"/>
<path d="M44.9041 54.096C41.5946 55.2394 38.5103 56.9538 35.7902 59.1617C34.5747 60.1934 33.6185 61.4973 32.999 62.9678C32.3796 64.4384 32.1143 66.0344 32.2245 67.6267C32.0721 70.8066 32.9089 73.9554 34.6194 76.6383C36.5699 79.1147 39.3751 80.7697 42.4826 81.2774C45.841 81.8704 49.2722 81.9244 52.6475 81.4373C54.1766 81.2388 55.6038 80.5606 56.7247 79.4998C57.8456 78.439 58.6026 77.0501 58.8875 75.5318C59.7841 72.1084 59.8933 68.5257 59.2068 65.0539C58.8416 62.6228 58.1057 60.2624 57.0248 58.0552C56.5173 57.1898 55.8245 56.4479 54.9962 55.8831C54.1679 55.3183 53.2249 54.9448 52.2351 54.7892C49.9599 54.2294 47.2324 53.4561 44.9041 54.096C44.4335 54.272 44.0458 54.6181 43.8173 55.0663C43.5888 55.5145 43.5362 56.0321 43.6697 56.5173C43.8033 57.0024 44.1134 57.4198 44.5389 57.6872C44.9644 57.9546 45.4744 58.0526 45.9684 57.9619C46.4075 57.8419 46.0483 57.8686 46.5938 57.8953C47.1393 57.9219 47.4054 57.8953 47.8178 57.9753C48.6161 58.0686 49.4144 58.2419 50.2127 58.4152C51.011 58.5885 51.5432 58.7218 52.1553 58.9084L52.7806 59.0817C52.8203 59.0761 52.8606 59.0761 52.9003 59.0817C52.5943 58.9484 52.7806 58.9617 52.9003 59.1484C53.8629 60.5685 54.5283 62.1693 54.8562 63.8541C55.4712 66.1193 55.7182 68.4689 55.5879 70.8128C55.4416 72.6924 55.3351 76.0784 53.3926 77.0649C52.4043 77.4619 51.3431 77.6437 50.2793 77.5981C48.8557 77.5981 47.432 77.6781 46.0084 77.5981C43.545 77.6389 41.1289 76.9173 39.0898 75.5318C38.2343 74.7722 37.5445 73.8438 37.0637 72.8046C36.5829 71.7655 36.3215 70.6381 36.2958 69.493C36.043 66.8269 36.0696 64.0408 38.3181 62.1611C39.362 61.3588 40.4651 60.6368 41.6178 60.0015C42.9784 59.1354 44.4337 58.4288 45.9552 57.8953C48.4166 57.1621 47.3522 53.2962 44.9041 54.096Z" fill="black"/>
<path d="M59.2201 62.8677C58.2364 65.4731 58.1279 68.329 58.9113 71.0017C59.6946 73.6745 61.327 76.0182 63.5605 77.677C65.7941 79.3358 68.5068 80.2191 71.2869 80.1928C74.067 80.1666 76.7627 79.2322 78.9646 77.5315C81.0973 75.5959 82.6227 73.0811 83.3552 70.2929C84.4367 67.4143 84.8903 64.337 84.6857 61.268C84.0205 55.5891 78.9646 52.2964 73.483 52.763C70.4002 52.9467 67.4292 53.9867 64.903 55.7667C62.3769 57.5467 60.3953 59.9963 59.1802 62.841C59.0385 63.3447 59.0982 63.884 59.3465 64.3444C59.5949 64.8047 60.0125 65.1501 60.5107 65.3072C61.0219 65.4359 61.5629 65.3623 62.0213 65.1016C62.4797 64.8409 62.8203 64.4132 62.9721 63.9075C64.4889 60.0549 68.2143 57.842 72.0594 56.9889C75.2126 56.2823 79.2174 56.8155 80.4015 60.3882C81.1599 62.6544 80.5612 65.2672 79.9492 67.4935C79.509 69.5864 78.6588 71.5709 77.4478 73.3323C74.8534 76.5717 70.0636 76.9316 66.5644 74.9586C64.7439 73.853 63.38 72.1294 62.7208 70.1012C62.0615 68.0731 62.1507 65.8753 62.9721 63.9075C63.0509 63.6519 63.0778 63.3829 63.051 63.1167C63.0243 62.8505 62.9444 62.5924 62.8163 62.3576C62.6881 62.1228 62.5142 61.9162 62.3049 61.7501C62.0956 61.5839 61.8551 61.4614 61.5978 61.39C61.3404 61.3186 61.0713 61.2997 60.8065 61.3344C60.5417 61.3691 60.2865 61.4567 60.0561 61.592C59.8257 61.7273 59.6248 61.9076 59.4652 62.1222C59.3056 62.3367 59.1906 62.5811 59.127 62.841L59.2201 62.8677Z" fill="black"/>
<path d="M84.0869 69.9596C88.4603 67.7433 92.6907 65.2545 96.7532 62.5078C97.2102 62.2391 97.5419 61.7995 97.6754 61.2858C97.8089 60.772 97.7332 60.2262 97.465 59.7683C97.1968 59.3105 96.7581 58.9781 96.2453 58.8444C95.7326 58.7106 95.1878 58.7864 94.7308 59.0551C90.6701 61.8047 86.4395 64.2937 82.0645 66.507C81.6128 66.7788 81.2857 67.2176 81.1538 67.7288C81.0219 68.24 81.0958 68.7827 81.3594 69.2398C81.6321 69.6723 82.057 69.9863 82.5498 70.1196C83.0427 70.2529 83.5676 70.1958 84.0204 69.9596H84.0869Z" fill="black"/>
<path d="M0.971207 86.503C3.05266 87.8434 5.34754 88.8172 7.75668 89.3824C8.01002 89.4525 8.27464 89.4718 8.53545 89.4393C8.79626 89.4069 9.04814 89.3233 9.2767 89.1933C9.50527 89.0634 9.70604 88.8896 9.86756 88.6818C10.0291 88.4741 10.1482 88.2366 10.2181 87.9827C10.2879 87.7289 10.3073 87.4637 10.2749 87.2024C10.2425 86.9411 10.1591 86.6888 10.0293 86.4597C9.8996 86.2307 9.72618 86.0296 9.51886 85.8677C9.31154 85.7059 9.0744 85.5866 8.82105 85.5165C7.71953 85.2649 6.64216 84.9169 5.60129 84.4767L6.08024 84.6767C5.00318 84.2227 3.96615 83.6786 2.98018 83.0503C2.52391 82.7862 1.98237 82.7122 1.47217 82.8444C0.961975 82.9765 0.523996 83.3042 0.25269 83.7569C-0.00366156 84.2192 -0.0719949 84.7628 0.061854 85.2744C0.195703 85.786 0.521458 86.2261 0.971207 86.503Z" fill="black"/>
<path d="M8.38218 63.7475C8.08979 67.1249 7.56973 70.4785 6.82553 73.7856C6.23307 77.0999 5.15249 80.3076 3.61908 83.3037C3.3509 83.7615 3.27518 84.3074 3.40868 84.8211C3.54217 85.3349 3.87389 85.7744 4.33086 86.0431C4.78782 86.3118 5.33261 86.3877 5.84536 86.2539C6.35812 86.1202 6.79683 85.7878 7.06501 85.3299C8.77933 82.036 9.99456 78.5046 10.6707 74.852C11.4841 71.1926 12.053 67.4829 12.3737 63.7475C12.3737 63.2172 12.1634 62.7086 11.7891 62.3336C11.4149 61.9586 10.9072 61.7479 10.3779 61.7479C9.84861 61.7479 9.34106 61.9586 8.96679 62.3336C8.59251 62.7086 8.38218 63.2172 8.38218 63.7475Z" fill="black"/>
<path d="M3.48594 66.2137C3.7944 72.5595 3.68329 78.9188 3.15332 85.25C3.15681 85.7792 3.36822 86.2858 3.74174 86.66C4.11526 87.0343 4.62083 87.2461 5.14906 87.2496C5.67516 87.2393 6.1769 87.0254 6.54898 86.6526C6.92106 86.2798 7.13457 85.7771 7.14479 85.25C7.67476 78.9188 7.78587 72.5595 7.47741 66.2137C7.37098 63.6542 3.3795 63.6409 3.48594 66.2137Z" fill="black"/>
<path d="M2.44818 147.318C3.08326 148.289 3.97118 149.068 5.01602 149.571C6.06271 150.091 7.23071 150.317 8.39544 150.224C8.66338 150.235 8.92952 150.175 9.16715 150.051C9.41237 149.971 9.63252 149.829 9.80575 149.637C10.1777 149.261 10.3878 148.754 10.3912 148.224C10.3939 147.961 10.3435 147.701 10.2429 147.458C10.1423 147.215 9.99355 146.995 9.80575 146.811C9.62436 146.62 9.40528 146.47 9.16244 146.369C8.91959 146.268 8.65831 146.219 8.39544 146.225C8.04176 146.265 7.68474 146.265 7.33106 146.225L7.84997 146.291C7.43361 146.234 7.02652 146.122 6.63918 145.958L7.11822 146.158C6.74662 146.001 6.39758 145.794 6.0804 145.545L6.47953 145.865C6.19745 145.638 5.94291 145.378 5.72114 145.092L6.04052 145.505C5.98429 145.439 5.93516 145.368 5.89411 145.291C5.61427 144.854 5.19073 144.529 4.69672 144.372C4.18742 144.236 3.64559 144.298 3.17994 144.545C2.95815 144.673 2.76397 144.843 2.60865 145.047C2.45333 145.251 2.33997 145.483 2.27521 145.731C2.20109 145.989 2.18055 146.259 2.21488 146.525C2.24921 146.791 2.33763 147.047 2.47474 147.278L2.44818 147.318Z" fill="black"/>
<path d="M52.7407 123.869L53.9781 104.006C54.1306 102.937 54.0163 101.847 53.6455 100.834C52.7273 99.4277 51.2932 98.441 49.654 98.0874C36.7319 93.5383 23.3446 90.4443 9.73928 88.8625L7.66372 90.9155C7.54397 98.354 8.76803 105.739 9.247 113.178C9.92555 123.522 9.16718 133.92 9.4998 144.278C9.42662 144.725 9.44641 145.181 9.55786 145.62C9.66931 146.058 9.87002 146.468 10.1474 146.825C10.4248 147.182 10.7729 147.477 11.1697 147.693C11.5666 147.908 12.0036 148.039 12.4534 148.078C18.1879 149.904 29.5104 153.17 29.8297 152.93C31.3997 151.69 51.1176 147.811 51.1176 147.811L52.1021 131.814C52.1021 131.814 47.6184 132.081 47.6184 128.815C47.7514 127.095 52.7407 123.869 52.7407 123.869Z" fill="#F25C2C"/>
<path d="M53.2063 147.811L54.1643 132.361C54.1608 131.831 53.9494 131.325 53.5759 130.951C53.2024 130.576 52.6968 130.365 52.1686 130.361C51.6425 130.371 51.1407 130.585 50.7687 130.958C50.3966 131.331 50.1831 131.834 50.1728 132.361L49.2148 147.811C49.2183 148.34 49.4297 148.847 49.8033 149.221C50.1768 149.595 50.6824 149.807 51.2106 149.811C51.7367 149.8 52.2384 149.586 52.6105 149.214C52.9826 148.841 53.1961 148.338 53.2063 147.811Z" fill="black"/>
<path d="M54.6432 124.669L55.854 105.259C56.027 102.593 56.1333 99.927 53.8981 98.0074C51.9157 96.3144 48.9753 95.6612 46.5538 94.8747C34.5445 90.9397 22.1709 88.2244 9.61945 86.7696C7.07821 86.463 7.09152 90.4756 9.61945 90.7688C20.9763 92.1174 32.183 94.5228 43.0946 97.9541C45.5666 98.6006 47.9861 99.434 50.3324 100.447C50.8392 100.61 51.278 100.937 51.5811 101.375C51.8841 101.814 52.0345 102.34 52.0089 102.873C51.9979 104.316 51.9136 105.758 51.7561 107.192L50.665 124.669C50.5054 127.242 54.4969 127.228 54.6565 124.669H54.6432Z" fill="black"/>
<path d="M18.4806 89.5558C18.6003 81.0108 19.3853 72.4925 19.5051 63.9608C19.498 63.5245 19.3495 63.1023 19.0821 62.7578C18.8147 62.4133 18.4429 62.1652 18.0226 62.0509C17.6022 61.9366 17.1561 61.9622 16.7516 62.124C16.3471 62.2857 16.0059 62.5748 15.7796 62.9477C11.8855 70.1595 8.74232 77.7535 6.39969 85.6099C4.65674 92.1553 5.81427 99.154 6.47951 105.779C7.26638 114.594 7.55515 123.447 7.34436 132.294C7.34436 134.8 7.34436 137.293 7.34436 139.786C7.15889 142.064 7.28871 144.356 7.73018 146.598C8.3422 148.584 10.032 149.451 11.8681 150.077C14.2496 150.877 16.6977 151.57 19.1192 152.264C19.6189 152.373 20.1416 152.286 20.5792 152.021C21.0168 151.755 21.336 151.332 21.4708 150.837C21.6057 150.343 21.546 149.816 21.304 149.364C21.0619 148.913 20.6562 148.571 20.1703 148.411C18.2544 147.851 16.3385 147.291 14.4359 146.691C13.6117 146.526 12.8115 146.257 12.0543 145.891C11.2028 145.358 11.4156 144.278 11.389 143.359C11.2959 139.239 11.389 135.12 11.389 131.001C11.5823 122.691 11.3024 114.377 10.5508 106.099C10.1517 102.1 9.71264 98.0342 9.59289 93.9816C9.45558 91.6908 9.64825 89.3921 10.165 87.1563C11.4564 82.5387 13.1251 78.0354 15.1543 73.6923C16.4848 70.7595 17.8154 67.8401 19.2656 64.974L15.5535 63.9608C15.4337 72.4925 14.6488 81.0108 14.529 89.5558C14.529 92.1286 18.5205 92.1286 18.5205 89.5558H18.4806Z" fill="black"/>
<path d="M28.1133 155.356C27.182 152.024 25.173 147.771 21.0884 147.918C16.6711 148.078 14.7685 153.157 13.6908 156.703C11.2043 165.133 11.9345 174.189 15.7398 182.111C17.5226 185.817 20.1304 190.469 24.5609 191.176C27.0198 191.405 29.4896 191.494 31.9584 191.442C34.6194 191.549 37.2804 191.776 39.9414 192.056C50.7583 193.215 61.4421 195.308 72.3388 195.708C77.7672 195.908 83.1956 195.815 88.624 195.602C94.0524 195.388 99.361 195.322 104.59 194.695C107.889 194.295 111.602 193.829 114.103 191.429C115.921 189.523 117.486 187.391 118.76 185.084C121.545 180.281 124.064 175.328 126.303 170.247C128.38 165.576 129.502 160.535 129.603 155.423C129.988 147.006 129.645 138.572 128.579 130.214C127.657 125.441 126.294 120.764 124.507 116.244C122.392 110.058 120.29 103.86 118.294 97.5809C116.524 92.0219 114.688 86.4097 113.451 80.7042C113.358 80.2376 113.265 79.7843 113.185 79.3711C113.039 78.5846 113.052 78.6112 112.972 78.038C112.653 75.4519 112.325 72.8568 111.987 70.2529C111.296 65.0006 110.537 59.7483 109.539 54.536C108.583 49.4113 107.317 44.3496 105.747 39.3789C105.002 37.0727 103.845 34.6732 103.938 32.207C104.231 29.8965 104.886 27.647 105.88 25.5417C107.211 21.9957 108.036 17.7032 105.88 14.2639C103.326 10.1447 98.5228 10.7446 94.5314 11.971C85.2179 14.8371 75.665 16.7834 66.3649 19.6228C61.9434 20.8692 57.635 22.488 53.4858 24.4619C50.1025 26.2841 46.8956 28.4173 43.9062 30.834C40.1809 33.7134 37.134 35.7263 34.5928 39.8989C31.4064 45.5174 28.8752 51.4843 27.0489 57.682C24.6554 65.0077 23.1107 72.5849 22.4454 80.2643C22.148 83.6153 22.1971 86.9881 22.5918 90.3289C22.9111 92.8484 26.9026 92.8884 26.5833 90.3289C25.9392 83.6354 26.3886 76.8815 27.9138 70.3329C29.3057 63.4947 31.3278 56.8006 33.9542 50.3368C35.6173 46.2709 37.5997 41.5785 40.6066 38.5258C40.7199 38.4079 40.8399 38.2966 40.9659 38.1925C40.6067 38.4991 40.9659 38.1925 40.9659 38.1925L41.9638 37.4327L44.9972 35.0065C47.7098 32.8169 50.5632 30.8086 53.539 28.9943C57.232 26.9713 61.1361 25.3619 65.1808 24.1953C69.4516 22.8622 73.8023 21.6358 78.153 20.516C82.5037 19.3962 87.1206 18.2764 91.5644 17.0233C93.5202 16.4634 95.4628 15.7969 97.4319 15.2904C99.401 14.7838 101.423 14.6105 102.501 16.4635C104.35 19.5962 102.275 23.6087 101.171 26.5948C100.298 28.6245 99.8458 30.8103 99.8401 33.0202C100.12 35.3591 100.711 37.6501 101.596 39.8322C104.559 49.1955 106.657 58.8119 107.863 68.5599C108.483 74.6923 109.514 80.776 110.95 86.7697C112.546 92.6085 114.422 98.3941 116.272 104.1C118.068 109.512 119.917 114.911 121.767 120.31C123.485 124.933 124.629 129.75 125.173 134.654C125.545 138.573 125.691 142.519 125.731 146.465C125.87 150.02 125.821 153.579 125.585 157.129C125.244 161.347 124.163 165.472 122.392 169.313C120.216 174.231 117.746 179.012 114.994 183.631C113.922 185.634 112.513 187.438 110.83 188.963C110.95 188.856 110.417 189.216 110.271 189.296C110.936 188.95 109.22 189.643 109.313 189.603C108.754 189.789 108.182 189.936 107.61 190.069C105.266 190.562 102.885 190.856 100.492 190.949C90.3633 191.707 80.2003 191.898 70.0504 191.522C59.9387 190.989 49.9866 189.043 39.9281 187.963C37.5864 187.71 35.2448 187.51 32.8898 187.39C30.5348 187.27 27.5678 187.657 25.0532 187.137C23.1373 186.737 22.0463 184.95 21.0617 183.404C19.9253 181.658 18.9797 179.794 18.2411 177.845C15.487 170.487 15.1809 161.262 18.8664 154.143C19.4252 153.077 20.5029 151.21 21.9398 152.037C23.3767 152.863 23.8558 154.943 24.2283 156.329C24.4039 156.801 24.7494 157.189 25.1967 157.418C25.644 157.647 26.1607 157.7 26.6449 157.566C27.129 157.432 27.5456 157.122 27.8125 156.695C28.0794 156.269 28.1772 155.758 28.0867 155.263L28.1133 155.356Z" fill="black"/>
<path d="M69.7045 116.777C64.7817 118.404 59.8323 119.95 54.9361 121.683C51.53 122.896 44.8776 124.882 45.2634 129.548C45.7158 135 52.5944 134.36 56.3996 134.347L72.4453 134.267C72.9746 134.267 73.4822 134.056 73.8565 133.681C74.2308 133.306 74.441 132.798 74.441 132.267C74.441 131.737 74.2308 131.229 73.8565 130.854C73.4822 130.479 72.9746 130.268 72.4453 130.268H59.4065H52.8871C52.1819 130.268 49.1883 130.428 49.2282 129.121C49.2282 128.642 49.8802 128.295 50.2261 128.068C51.1162 127.508 52.0507 127.022 53.0202 126.615C54.8587 125.828 56.7373 125.138 58.6481 124.549L70.7689 120.55C73.1904 119.75 72.0994 115.884 69.7045 116.697V116.777Z" fill="black"/>
<path d="M28.6322 155.529C41.1781 150.806 54.5252 148.587 67.9215 148.997C70.4894 149.077 70.4894 145.078 67.9215 144.998C54.1654 144.565 40.4574 146.83 27.5678 151.664C25.1862 152.557 26.2373 156.423 28.6322 155.516V155.529Z" fill="black"/>
</g>
<defs>
<clipPath id="clip0_39_1111">
<rect width="156" height="204" fill="white"/>
</clipPath>
</defs>
</svg>
