<svg width="617" height="631" viewBox="0 0 617 631" fill="none" xmlns="http://www.w3.org/2000/svg">
<path d="M600.526 225.657C603.513 217.62 604.074 180.903 602.699 172.444C601.414 163.809 599.308 155.314 596.41 147.073C592.981 136.811 584.384 104.776 577.736 95.8715C567.712 82.3884 539.432 77.9732 528.227 65.5067C523.551 60.3123 517.306 43.3267 510.464 36.5666C508.866 34.9786 502.487 36.5666 493.366 37.6945C490.095 38.1027 480.922 38.7186 478.427 40.8631C475.439 43.4232 463.428 70.8643 461.762 74.4113L443.917 112.36C440.825 118.935 437.703 125.62 436.597 132.789C435.678 138.725 436.171 144.721 437 150.642C441.363 181.861 465.856 242.115 485.165 267.145C487.525 270.195 487.794 268.547 488.81 272.258C489.557 275.055 488.997 275.649 488.907 278.55C488.406 295.936 479.196 291.863 482.984 308.848C492.111 312.714 494.987 318.91 503.943 314.673C512.899 310.436 534.942 305.657 542.554 299.335C562.52 282.721 584.563 268.696 600.526 225.657Z" fill="#896FA5"/>
<path d="M659.516 395.385H685.71C685.71 395.385 707.563 457.214 708.815 480.062C710.447 509.827 700.973 570.691 691.099 596.494C681.225 622.297 662.544 649.609 640.311 663.527C624.566 673.359 619.639 672.939 597.94 672.939C593.321 672.939 573.593 679.99 569.446 679.99C566.367 679.99 563.955 677.578 564.047 669.408C564.098 664.789 563.76 646.971 560.968 638.832C552.489 614.137 540.162 561.125 554.039 523.58C570.986 477.711 583.303 461.248 601.019 451.836C618.735 442.424 654.948 421.26 654.948 421.26L659.516 395.385Z" fill="#896FA5"/>
<path d="M119.91 309.498L123.543 334.244C123.543 334.244 68.1157 363.475 46.7351 367.827C18.8161 373.493 -39.9985 372.959 -65.7517 367.232C-91.5049 361.505 -119.906 347.628 -136.155 328.496C-147.63 314.989 -147.907 310.268 -150.915 289.771C-151.562 285.409 -160.964 267.745 -161.538 263.824C-161.97 260.909 -160.019 258.302 -152.301 257.256C-147.928 256.671 -131.136 253.869 -123.827 250.071C-101.667 238.637 -53.2908 219.629 -15.8773 227.491C29.8195 237.139 47.0841 246.499 58.4364 261.936C69.7888 277.373 94.8132 308.718 94.8132 308.718L119.91 309.498Z" fill="#896FA5"/>
<path d="M94.495 60.3965C99.1756 57.4918 103.866 54.4435 109.306 53.2118C113.315 52.2899 117.388 51.6723 121.49 51.3644C127.66 50.8806 133.851 50.7196 140.038 50.882C145.139 51.1263 150.212 51.7784 155.209 52.8321C160.782 53.9611 166.232 55.6649 171.755 57.0813C172.377 57.2147 173.021 57.2147 173.643 57.0813C174.761 56.858 175.92 56.972 176.973 57.4087C178.025 57.8455 178.924 58.5854 179.556 59.5343C182.779 63.5961 185.422 68.0868 187.408 72.8772C189.31 77.6794 190.449 82.7493 190.785 87.9034C191.447 98.5373 189.509 109.172 185.139 118.89C183.218 122.856 180.933 126.636 178.314 130.18C175.706 133.967 172.812 137.57 169.917 141.152C168.444 143.043 166.764 144.765 164.908 146.284C161.594 148.986 158.111 151.475 154.48 153.735C149.717 156.599 144.298 157.133 138.847 157.266C133.031 157.445 127.243 156.396 121.86 154.187C117.511 152.352 113.38 150.038 109.543 147.29C105.299 144.226 101.304 140.832 97.5949 137.139C93.9914 133.675 91.128 129.517 89.1781 124.915C87.0123 119.649 84.7952 114.394 82.8758 109.026C80.8229 103.391 79.0883 97.6642 77.3536 91.9268C75.6635 86.7362 75.8304 81.1196 77.8258 76.0385C79.5082 71.5868 82.5271 67.7649 86.4683 65.0973C89.0447 63.414 91.816 61.9463 94.495 60.3965Z" fill="#F7B822"/>
<path d="M-24.6944 593.025C-26.388 587.78 -28.2253 582.504 -28.1022 576.921C-28.0379 572.81 -27.664 568.71 -26.9834 564.656C-25.9775 558.547 -24.6481 552.497 -23.0008 546.53C-21.5507 541.635 -19.7038 536.868 -17.4786 532.273C-15.0459 527.142 -12.0795 522.246 -9.38002 517.227C-9.10403 516.656 -8.95353 516.033 -8.93866 515.4C-8.88303 514.264 -8.49148 513.169 -7.81359 512.256C-7.1357 511.342 -6.20196 510.65 -5.13059 510.268C-0.417202 508.086 4.57886 506.577 9.71163 505.783C14.8291 505.082 20.0251 505.193 25.1081 506.111C35.5955 508.014 45.4606 512.446 53.8483 519.023C57.254 521.836 60.3881 524.964 63.2093 528.363C66.2886 531.801 69.0703 535.465 71.8416 539.14C73.3377 541.023 74.6185 543.068 75.66 545.237C77.4679 549.103 79.0311 553.08 80.3405 557.143C81.9623 562.439 81.1822 567.827 80.012 573.154C78.7985 578.847 76.3955 584.22 72.9604 588.919C70.1352 592.685 66.9029 596.127 63.3222 599.183C59.3187 602.597 55.0488 605.686 50.5534 608.42C46.3298 611.089 41.6088 612.873 36.676 613.665C31.0409 614.507 25.3853 615.4 19.7399 615.974C13.7866 616.58 7.7922 616.929 1.81836 617.237C-3.64058 617.625 -9.06487 616.105 -13.5268 612.936C-17.4387 610.231 -20.421 606.386 -22.0667 601.923C-23.1034 599.019 -23.7911 595.981 -24.6944 593.025Z" fill="#F7B822"/>
<path d="M378.304 548.665C376.928 543.328 375.409 537.949 375.871 532.397C376.18 528.294 376.801 524.221 377.729 520.213C379.105 514.177 380.794 508.216 382.789 502.355C384.541 497.56 386.672 492.913 389.163 488.457C391.894 483.479 395.158 478.779 398.145 473.934C398.461 473.38 398.653 472.763 398.709 472.128C398.829 470.993 399.283 469.92 400.014 469.045C400.745 468.169 401.72 467.531 402.815 467.211C407.656 465.342 412.735 464.161 417.904 463.701C423.07 463.302 428.266 463.725 433.3 464.953C443.65 467.483 453.227 472.5 461.199 479.569C464.423 482.585 467.361 485.894 469.974 489.453C472.818 493.066 475.404 496.904 477.95 500.743C479.328 502.718 480.484 504.838 481.399 507.066C482.959 511.027 484.268 515.082 485.32 519.208C486.634 524.606 485.525 529.933 484.026 535.178C482.479 540.787 479.757 546.004 476.041 550.481C473.004 554.084 469.575 557.337 465.817 560.181C461.601 563.331 457.139 566.138 452.474 568.576C448.093 570.982 443.272 572.479 438.299 572.98C432.623 573.482 426.946 574.006 421.26 574.262C415.276 574.509 409.271 574.499 403.287 574.447C397.825 574.508 392.51 572.673 388.25 569.254C384.509 566.322 381.763 562.308 380.387 557.758C379.525 554.761 378.991 551.692 378.304 548.665Z" fill="#F7B822"/>
<path d="M324.242 210.186C324.157 210.813 323.913 211.408 323.532 211.913C323.151 212.418 322.647 212.816 322.067 213.07C321.488 213.324 320.853 213.424 320.223 213.361C319.594 213.298 318.991 213.074 318.473 212.711C312.725 208.677 309.235 204.428 303.826 198.28C302.225 196.453 300.592 194.441 300.315 192.029C300.038 189.617 301.773 186.826 304.206 186.897C295.167 179.388 287.181 170.695 280.464 161.053C279.93 160.283 279.438 159.154 280.115 158.518C280.39 158.346 280.701 158.241 281.024 158.213C281.347 158.184 281.672 158.233 281.973 158.354L288.86 160.017C279.606 152.567 272.094 143.182 266.854 132.52C266.084 130.95 265.376 129.03 266.279 127.532C273.379 132.743 279.995 138.583 286.048 144.98C281.846 142.031 278.862 137.653 277.652 132.664C276.625 127.706 268.66 110.812 272.212 107.179C288.522 118.325 306.084 148.634 315.486 166C325.699 184.804 325.34 201.79 324.242 210.186Z" fill="#2C8775"/>
<path d="M167.669 498.095C167.59 498.725 167.349 499.323 166.97 499.832C166.591 500.341 166.087 500.744 165.506 501.001C164.926 501.258 164.289 501.361 163.658 501.299C163.026 501.238 162.421 501.015 161.901 500.651C156.153 496.607 152.663 492.368 147.254 486.22C145.652 484.393 144.02 482.381 143.743 479.969C143.466 477.557 145.201 474.766 147.633 474.837C138.597 467.326 130.612 458.633 123.892 448.993C123.358 448.223 122.866 447.094 123.543 446.458C123.816 446.281 124.128 446.174 124.452 446.145C124.775 446.116 125.101 446.167 125.401 446.294L132.288 447.957C123.035 440.51 115.524 431.128 110.282 420.47C109.512 418.9 108.804 416.98 109.707 415.482C116.808 420.696 123.427 426.535 129.486 432.93C125.282 429.984 122.296 425.604 121.09 420.614C120.012 415.656 112.088 398.762 115.64 395.129C131.95 406.275 149.512 436.584 158.914 453.94C169.178 472.723 168.768 489.72 167.669 498.095Z" fill="#2C8775"/>
<g clip-path="url(#clip0_13_642)">
<path d="M442.828 419.768C440.434 416.887 437.064 414.754 434.121 412.468L424.438 404.894L386.91 375.726C386.634 375.507 386.332 375.323 386.011 375.177C385.69 372.571 385.355 369.996 384.974 367.436C383.845 359.663 382.915 351.206 380.201 343.799C377.791 337.201 371.707 334.077 366.019 330.663C358.83 326.148 351.215 322.351 343.283 319.325C342.642 319.081 341.971 318.898 341.301 318.7C341.301 318.7 341.392 318.578 341.423 318.502C347.187 304.786 352.92 290.751 353.393 275.71C353.484 272.372 353.256 268.715 349.931 266.962C346.607 265.21 341.789 267.755 338.495 268.943C331.687 271.204 325.127 274.15 318.915 277.736C312.375 281.597 306.763 286.846 302.477 293.113C301.905 293.906 301.654 294.886 301.775 295.856C297.323 294.195 292.763 292.336 289.424 289.029C291.587 286.496 293.145 283.504 293.98 280.28C294.815 277.057 294.904 273.685 294.242 270.422C292.717 262.406 285.871 252.576 278.048 249.467C273.183 247.517 269.203 250.854 265.208 253.247C260.969 255.776 256.608 258.062 252.186 260.242C243.295 264.631 234.192 268.532 225.332 272.951C216.692 277.118 208.54 282.229 201.025 288.191C197.701 290.903 193.69 294.088 191.327 297.715C188.963 301.342 189.527 307.621 189.406 311.949C188.721 327.762 191.69 343.521 198.082 358.002C192.51 359.284 187.232 361.612 182.528 364.86C179.608 366.87 176.932 369.212 174.553 371.84C172.037 374.644 169.14 378.606 172.571 382.035C174.114 383.226 175.883 384.092 177.771 384.58L183.306 386.729C187.194 388.253 191.068 389.777 194.987 391.224C202.703 393.983 210.236 394.12 218.379 393.525C220.757 393.358 229.8 393.068 232.286 397.213C235.595 402.7 237.425 409.115 239.62 415.104L246.757 434.657C239.895 441.575 233.201 448.687 226.674 455.992C226.326 456.389 226.048 456.843 225.851 457.333C221.413 456.205 216.884 456.098 212.66 458.659C206.988 462.103 206.088 468.64 208.085 474.538C210.754 482.28 214.887 489.777 218.318 497.169C220.635 502.182 223.685 507.836 229.388 509.512C236.418 511.6 244.942 506.708 251.423 504.392C259.048 501.649 266.672 498.845 274.297 495.827C289.153 490.038 303.522 483.072 317.268 474.995C330.718 466.771 343.662 457.748 356.031 447.976C357.342 446.955 358.623 445.888 359.935 444.852C360.55 445.281 361.263 445.548 362.009 445.629C378.051 447.214 394.118 448.438 410.211 449.302C414.358 449.515 418.511 449.703 422.669 449.865C426.085 450.003 429.973 450.643 433.343 449.759C438.955 448.235 442.203 441.682 444.262 436.805C446.61 431.121 446.976 424.705 442.828 419.768Z" fill="#A274B3"/>
<path d="M239.62 415.15L246.757 434.702C239.895 441.621 233.201 448.732 226.674 456.037C226.326 456.435 226.048 456.888 225.851 457.378C221.413 456.251 216.884 456.144 212.66 458.704C206.988 462.148 206.088 468.686 208.085 474.584C210.754 482.325 214.887 489.823 218.318 497.214C220.635 502.228 223.685 507.882 229.388 509.558C236.418 511.646 244.942 506.754 251.423 504.438C259.048 501.694 266.672 498.89 274.297 495.873C289.154 490.069 303.524 483.088 317.268 474.995C330.718 466.77 343.662 457.748 356.031 447.976C357.342 446.955 358.623 445.888 359.935 444.851C360.55 445.28 361.263 445.548 362.009 445.629C378.051 447.214 394.118 448.438 410.211 449.301C414.358 449.515 418.511 449.703 422.669 449.865C426.085 450.002 429.973 450.642 433.343 449.759C438.955 448.235 442.203 441.682 444.262 436.805C446.671 431.121 447.037 424.751 442.889 419.767C440.495 416.887 437.125 414.754 434.182 412.468L424.438 404.894L386.91 375.726C386.634 375.507 386.332 375.322 386.011 375.177C385.69 372.571 385.355 369.996 384.974 367.435C383.845 359.663 382.915 351.205 380.201 343.799" fill="#4B4B4B"/>
<path d="M264.247 427.418C264.111 428.096 264.242 428.8 264.613 429.384C265.092 430.009 265.712 430.513 266.422 430.854C267.132 431.196 267.912 431.365 268.7 431.349C270.386 431.303 272.003 430.673 273.275 429.566C280.808 423.333 268.807 413.489 265.757 417.923C265.471 418.444 265.349 419.039 265.406 419.63C265.465 421.156 265.414 422.684 265.254 424.202C265.025 425.208 264.415 426.32 264.247 427.418Z" fill="#F75C2C"/>
<path d="M267.13 426.001C267.031 426.135 266.96 426.288 266.921 426.45C266.881 426.612 266.875 426.781 266.901 426.945C266.99 427.32 267.166 427.668 267.415 427.962C267.664 428.256 267.979 428.487 268.334 428.637C269.085 428.926 269.911 428.958 270.683 428.728C275.257 427.464 271.887 420.712 269.661 422.069C269.431 422.245 269.257 422.483 269.158 422.755C268.884 423.436 268.563 424.098 268.197 424.736C267.922 425.178 267.419 425.543 267.13 426.001Z" fill="#F7B822"/>
<path d="M259.063 458.476C258.927 459.158 259.058 459.867 259.429 460.457C259.914 461.078 260.537 461.577 261.249 461.916C261.961 462.255 262.742 462.423 263.531 462.407C265.185 462.34 266.766 461.711 268.014 460.624C275.547 454.391 263.546 444.562 260.496 448.997C260.225 449.517 260.103 450.103 260.145 450.688C260.21 452.214 260.164 453.741 260.008 455.26C259.841 456.266 259.231 457.394 259.063 458.476Z" fill="#F75C2C"/>
<path d="M261.945 457.058C261.759 457.342 261.683 457.683 261.731 458.018C261.818 458.39 261.992 458.736 262.238 459.028C262.485 459.319 262.797 459.548 263.15 459.695C263.897 459.999 264.729 460.032 265.498 459.786C270.073 458.521 266.703 451.77 264.476 453.142C264.24 453.311 264.064 453.552 263.973 453.828C263.706 454.507 263.384 455.165 263.012 455.794C262.738 456.235 262.25 456.616 261.945 457.058Z" fill="#F7B822"/>
<path d="M297.917 453.309C297.779 453.989 297.916 454.696 298.298 455.275C298.778 455.9 299.398 456.403 300.108 456.744C300.817 457.086 301.598 457.256 302.385 457.241C304.036 457.16 305.613 456.533 306.868 455.458C314.401 449.225 302.4 439.381 299.351 443.815C299.079 444.341 298.957 444.932 299 445.522C299.072 447.047 299.026 448.576 298.863 450.094C298.695 451.1 298.085 452.212 297.917 453.309Z" fill="#F75C2C"/>
<path d="M300.799 451.892C300.611 452.169 300.535 452.507 300.586 452.837C300.672 453.209 300.846 453.555 301.093 453.846C301.339 454.138 301.652 454.366 302.004 454.513C302.752 454.814 303.58 454.852 304.352 454.62C308.927 453.34 305.557 446.589 303.331 447.96C303.101 448.137 302.927 448.375 302.827 448.646C302.563 449.327 302.241 449.985 301.867 450.612C301.592 451.054 301.135 451.435 300.799 451.892Z" fill="#F7B822"/>
<path d="M305.709 414.479C305.638 414.815 305.633 415.161 305.696 415.499C305.759 415.836 305.888 416.158 306.075 416.445C306.557 417.068 307.177 417.57 307.886 417.911C308.596 418.252 309.375 418.424 310.162 418.411C311.845 418.35 313.457 417.722 314.737 416.628C322.27 410.395 310.254 400.551 307.219 404.985C306.933 405.506 306.811 406.101 306.868 406.692C306.927 408.218 306.876 409.746 306.716 411.264C306.472 412.27 305.862 413.382 305.709 414.479Z" fill="#F75C2C"/>
<path d="M308.576 413.062C308.478 413.197 308.407 413.35 308.367 413.512C308.328 413.674 308.321 413.842 308.347 414.007C308.438 414.379 308.615 414.725 308.864 415.016C309.113 415.308 309.427 415.536 309.781 415.683C310.529 415.985 311.357 416.023 312.129 415.79C316.704 414.51 313.334 407.759 311.092 409.13C310.868 409.309 310.699 409.546 310.604 409.816C310.33 410.493 310.009 411.15 309.644 411.782C309.354 412.224 308.866 412.605 308.576 413.062Z" fill="#F7B822"/>
<path d="M334.179 388.588C334.041 389.268 334.178 389.975 334.56 390.554C335.038 391.181 335.657 391.686 336.367 392.028C337.078 392.37 337.859 392.538 338.647 392.52C340.301 392.452 341.883 391.823 343.13 390.737C350.755 384.504 338.662 374.659 335.628 379.094C335.342 379.614 335.22 380.209 335.277 380.8C335.336 382.326 335.285 383.854 335.125 385.372C334.957 386.378 334.362 387.491 334.179 388.588Z" fill="#F75C2C"/>
<path d="M337.077 387.17C336.978 387.305 336.907 387.458 336.868 387.62C336.829 387.782 336.822 387.951 336.848 388.115C336.937 388.488 337.111 388.835 337.357 389.128C337.603 389.422 337.915 389.654 338.266 389.807C339.017 390.096 339.843 390.128 340.614 389.898C345.189 388.633 341.819 381.882 339.593 383.239C339.363 383.411 339.192 383.651 339.105 383.924C338.831 384.606 338.51 385.268 338.144 385.906C337.854 386.348 337.366 386.713 337.077 387.17Z" fill="#F7B822"/>
<path d="M336.772 435.19C336.633 435.87 336.77 436.577 337.153 437.156C337.632 437.78 338.251 438.283 338.962 438.622C339.672 438.961 340.453 439.127 341.24 439.106C342.893 439.039 344.475 438.41 345.723 437.323C353.271 431.106 341.255 421.261 338.205 425.696C337.935 426.217 337.814 426.802 337.854 427.387C337.925 428.913 337.879 430.441 337.717 431.959C337.549 432.98 336.939 434.093 336.772 435.19Z" fill="#F75C2C"/>
<path d="M339.654 433.849C339.466 434.126 339.39 434.463 339.44 434.794C339.527 435.165 339.7 435.511 339.947 435.803C340.194 436.094 340.506 436.323 340.858 436.47C341.606 436.771 342.434 436.808 343.207 436.577C347.781 435.297 344.411 428.545 342.185 429.917C341.956 430.093 341.781 430.331 341.682 430.603C341.414 431.283 341.093 431.94 340.721 432.569C340.447 432.934 339.959 433.315 339.654 433.849Z" fill="#F7B822"/>
<path d="M373.034 406.707C372.895 407.387 373.032 408.094 373.415 408.673C373.892 409.3 374.511 409.806 375.222 410.147C375.932 410.489 376.713 410.658 377.502 410.639C379.145 410.565 380.714 409.937 381.954 408.856C389.579 402.623 377.486 392.794 374.452 397.213C374.166 397.734 374.044 398.329 374.101 398.92C374.16 400.446 374.109 401.974 373.949 403.492C373.811 404.498 373.217 405.61 373.034 406.707Z" fill="#F75C2C"/>
<path d="M375.931 405.29C375.832 405.425 375.761 405.577 375.722 405.74C375.683 405.902 375.676 406.07 375.702 406.235C375.791 406.607 375.966 406.954 376.212 407.248C376.458 407.541 376.769 407.774 377.12 407.926C377.872 408.215 378.697 408.247 379.469 408.018C384.043 406.753 380.673 400.002 378.447 401.358C378.217 401.531 378.047 401.771 377.959 402.044C377.685 402.726 377.364 403.388 376.998 404.025C376.709 404.467 376.221 404.894 375.931 405.29Z" fill="#F7B822"/>
<path d="M406.703 435.19C406.573 435.87 406.71 436.574 407.085 437.156C407.564 437.779 408.184 438.281 408.894 438.62C409.604 438.959 410.385 439.126 411.171 439.106C412.831 439.043 414.418 438.413 415.67 437.323C423.203 431.106 411.187 421.261 408.152 425.696C407.867 426.211 407.745 426.801 407.801 427.387C407.86 428.913 407.809 430.441 407.649 431.959C407.496 432.98 406.886 434.093 406.703 435.19Z" fill="#F75C2C"/>
<path d="M409.601 433.849C409.502 433.983 409.431 434.136 409.392 434.298C409.353 434.461 409.346 434.629 409.372 434.794C409.462 435.166 409.639 435.512 409.888 435.803C410.137 436.094 410.451 436.323 410.805 436.47C411.553 436.772 412.382 436.81 413.154 436.577C417.728 435.297 414.358 428.545 412.117 429.917C411.893 430.095 411.724 430.333 411.629 430.603C411.355 431.28 411.034 431.937 410.668 432.569C410.378 432.934 409.89 433.315 409.601 433.849Z" fill="#F7B822"/>
<path d="M401.534 409.298C401.398 409.976 401.529 410.68 401.9 411.264C402.379 411.889 402.998 412.393 403.708 412.735C404.418 413.076 405.199 413.246 405.987 413.23C407.644 413.159 409.229 412.53 410.485 411.447C418.018 405.214 406.017 395.369 402.967 399.804C402.682 400.325 402.559 400.919 402.617 401.511C402.673 403.036 402.627 404.563 402.479 406.082C402.312 407.088 401.778 408.201 401.534 409.298Z" fill="#F75C2C"/>
<path d="M404.416 407.942C404.317 408.076 404.246 408.229 404.207 408.391C404.168 408.553 404.161 408.722 404.187 408.887C404.275 409.26 404.451 409.607 404.701 409.898C404.95 410.19 405.265 410.418 405.621 410.563C406.368 410.865 407.197 410.903 407.969 410.67C412.544 409.405 409.174 402.654 406.947 404.01C406.718 404.186 406.543 404.424 406.444 404.696C406.17 405.378 405.849 406.04 405.483 406.677C405.209 407.058 404.706 407.424 404.416 407.942Z" fill="#F7B822"/>
<path d="M269.417 484.367C269.287 485.047 269.423 485.751 269.798 486.333C270.277 486.959 270.896 487.462 271.606 487.804C272.317 488.145 273.097 488.315 273.885 488.299C275.57 488.253 277.188 487.622 278.46 486.516C285.993 480.283 273.976 470.454 270.942 474.873C270.656 475.394 270.534 475.989 270.591 476.58C270.65 478.106 270.599 479.633 270.439 481.152C270.21 482.158 269.6 483.27 269.417 484.367Z" fill="#F75C2C"/>
<path d="M272.314 482.95C272.216 483.085 272.145 483.237 272.105 483.4C272.066 483.562 272.059 483.73 272.085 483.895C272.175 484.269 272.351 484.618 272.6 484.912C272.849 485.205 273.164 485.437 273.519 485.586C274.268 485.883 275.097 485.916 275.867 485.678C280.442 484.413 277.072 477.662 274.83 479.018C274.606 479.197 274.437 479.434 274.342 479.704C274.068 480.386 273.748 481.048 273.382 481.685C273.092 482.127 272.604 482.493 272.314 482.95Z" fill="#F7B822"/>
<path d="M230.563 484.367C230.424 485.047 230.561 485.754 230.944 486.333C231.423 486.959 232.042 487.462 232.752 487.804C233.462 488.145 234.243 488.315 235.03 488.299C236.69 488.235 238.277 487.606 239.529 486.516C247.062 480.283 235.046 470.454 232.011 474.873C231.725 475.394 231.603 475.989 231.66 476.58C231.719 478.106 231.669 479.633 231.508 481.152C231.355 482.158 230.745 483.27 230.563 484.367Z" fill="#F75C2C"/>
<path d="M233.46 482.95C233.361 483.085 233.29 483.238 233.251 483.4C233.212 483.562 233.205 483.73 233.231 483.895C233.32 484.267 233.494 484.614 233.741 484.908C233.987 485.201 234.298 485.434 234.649 485.586C235.429 485.896 236.292 485.923 237.089 485.663C241.664 484.398 238.294 477.647 236.052 479.003C235.828 479.181 235.659 479.419 235.564 479.689C235.29 480.371 234.969 481.033 234.603 481.67C234.238 482.127 233.75 482.493 233.46 482.95Z" fill="#F7B822"/>
<path d="M204.273 325.314V328.697C204.252 329.289 204.383 329.877 204.654 330.404C204.834 330.946 205.149 331.434 205.569 331.821C206.404 332.594 207.483 333.052 208.619 333.116L209.793 332.949C210.528 332.742 211.199 332.354 211.745 331.821L212.431 330.922C212.824 330.246 213.03 329.478 213.026 328.697V325.329C213.066 324.74 212.933 324.153 212.645 323.638C212.451 323.102 212.141 322.615 211.738 322.212C211.335 321.809 210.848 321.5 210.312 321.306C209.793 321.026 209.208 320.895 208.619 320.925L207.445 321.077C206.707 321.284 206.035 321.678 205.493 322.22L204.807 323.104C204.417 323.781 204.207 324.548 204.197 325.329L204.273 325.314Z" fill="black"/>
<path d="M229.953 317.328V321.534C229.93 322.122 230.061 322.705 230.334 323.226C230.517 323.771 230.831 324.263 231.249 324.658C231.632 325.079 232.122 325.39 232.667 325.558C233.182 325.846 233.77 325.978 234.36 325.938L235.534 325.786C236.268 325.579 236.939 325.191 237.486 324.658L238.172 323.759C238.576 323.088 238.787 322.318 238.782 321.534V317.328C238.803 316.736 238.672 316.148 238.4 315.621C238.214 315.082 237.9 314.596 237.486 314.204C237.098 313.784 236.61 313.469 236.067 313.29C235.542 313.015 234.951 312.889 234.36 312.924L233.201 313.076C232.462 313.274 231.789 313.663 231.249 314.204L230.563 315.103C230.158 315.775 229.947 316.545 229.953 317.328Z" fill="black"/>
<path d="M204.105 260.943C203.159 269.181 203.592 277.519 205.386 285.615C205.874 287.84 209.305 286.895 208.817 284.67C207.123 276.879 206.731 268.861 207.659 260.943C207.681 260.696 207.653 260.447 207.574 260.211C207.495 259.976 207.368 259.76 207.201 259.577C207.033 259.393 206.83 259.247 206.603 259.147C206.376 259.047 206.13 258.995 205.882 258.995C205.634 258.995 205.388 259.047 205.161 259.147C204.934 259.247 204.731 259.393 204.563 259.577C204.396 259.76 204.269 259.976 204.19 260.211C204.111 260.447 204.083 260.696 204.105 260.943Z" fill="black"/>
<path d="M239.071 273.286C238.507 270.589 237.318 268.105 236.632 265.453C235.945 262.802 236.906 260.775 237.47 258.291C238.034 255.807 238.248 253.475 238.66 251.083C238.836 248.764 239.568 246.521 240.795 244.545C242.182 242.731 239.102 240.948 237.745 242.747C234.695 246.831 235.183 252.911 233.994 257.666C233.292 260.424 232.469 262.817 233.063 265.712C233.658 268.608 235.046 271.305 235.656 274.231C236.128 276.471 239.559 275.527 239.087 273.286H239.071Z" fill="black"/>
<path d="M221.489 251.433C219.823 255.61 219.064 260.093 219.263 264.585C219.418 269.449 219.291 274.319 218.882 279.169C218.76 280.129 219.797 280.937 220.666 280.952C221.134 280.937 221.579 280.744 221.911 280.413C222.242 280.082 222.435 279.637 222.45 279.169C222.846 274.609 222.969 270.029 222.816 265.453C222.816 261.4 222.816 256.98 224.554 253.262C225.515 251.205 222.45 249.391 221.505 251.479L221.489 251.433Z" fill="black"/>
<path d="M267.404 336.317C267.778 337.492 267.778 338.753 267.404 339.928C266.969 341.274 266.08 342.427 264.888 343.19C263.607 344.058 262.311 344.912 260.969 345.719C259.627 346.527 258.407 347.167 257.096 347.868C255.951 348.47 254.695 348.833 253.405 348.935C252.05 349.041 250.689 349.041 249.334 348.935C248.114 348.859 246.907 348.644 245.735 348.295C244.296 347.856 242.966 347.119 241.831 346.131C240.704 345.283 239.82 344.153 239.27 342.854C238.913 341.806 238.617 340.737 238.385 339.654C238.266 339.047 238.215 338.428 238.233 337.81C238.233 336.606 238.233 335.417 238.355 334.229C238.409 333.083 238.573 331.945 238.843 330.83C239.563 328.166 240.924 325.718 242.807 323.698C243.717 322.719 244.778 321.891 245.949 321.245C247.13 320.602 248.399 320.135 249.715 319.858C249.988 319.788 250.275 319.795 250.544 319.879C250.814 319.962 251.054 320.119 251.24 320.33C251.341 320.461 251.472 320.565 251.621 320.635C252.963 321.26 254.336 321.809 255.632 322.51C256.811 323.111 257.938 323.809 259.002 324.597C260.267 325.573 261.472 326.64 262.646 327.737C263.413 328.478 264.127 329.272 264.781 330.114C265.588 331.296 266.191 332.604 266.565 333.985C266.855 334.793 267.175 335.585 267.404 336.317Z" fill="#F7B822"/>
<path d="M216.701 348.965C217.011 350.096 216.953 351.295 216.537 352.391C216.12 353.486 215.366 354.421 214.383 355.061C213.224 355.838 212.05 356.585 210.861 357.332C209.671 358.079 208.543 358.642 207.384 359.267C206.351 359.804 205.221 360.131 204.06 360.227C202.842 360.326 201.618 360.326 200.4 360.227C199.305 360.162 198.22 359.973 197.167 359.663C195.876 359.261 194.682 358.597 193.66 357.713C192.661 356.991 191.863 356.026 191.342 354.909C191.018 353.971 190.753 353.015 190.549 352.044C190.442 351.492 190.396 350.93 190.412 350.367C190.412 349.301 190.412 348.219 190.519 347.152C190.574 346.125 190.722 345.105 190.961 344.104C191.602 341.712 192.822 339.514 194.514 337.703C195.331 336.822 196.283 336.076 197.335 335.494C198.399 334.921 199.539 334.5 200.72 334.244C200.974 334.161 201.248 334.157 201.504 334.233C201.76 334.31 201.987 334.462 202.154 334.671C202.247 334.783 202.361 334.876 202.489 334.945C203.694 335.509 204.929 335.997 206.103 336.621C207.171 337.165 208.191 337.797 209.153 338.511C210.293 339.389 211.382 340.33 212.416 341.33C213.113 341.993 213.76 342.707 214.353 343.464C215.051 344.529 215.566 345.704 215.878 346.939C216.198 347.609 216.488 348.28 216.701 348.965Z" fill="#F7B822"/>
<path d="M225.607 339.365L220.956 341.132C220.071 341.377 219.255 341.824 218.572 342.437C217.89 343.051 217.359 343.814 217.021 344.668C216.648 346.27 216.524 347.92 216.655 349.56C216.655 351.251 216.655 352.928 216.762 354.619C216.915 357.667 216.991 361.02 219.034 363.504C221.078 365.988 224.57 366.14 227.696 366.14H232.926C234.399 366.245 235.88 366.096 237.303 365.698C238.17 365.407 238.94 364.881 239.527 364.179C240.114 363.477 240.494 362.626 240.627 361.721C240.772 359.92 240.772 358.111 240.627 356.311C240.627 352.912 240.627 349.484 240.474 346.1C240.291 343.052 239.285 339.852 236.311 338.481C235.439 338.046 234.48 337.817 233.506 337.81C233.063 337.799 232.622 337.85 232.194 337.963C231.737 338.084 231.172 338.557 230.761 338.557C231.432 338.557 231.264 338.42 230.883 338.557L229.815 338.74L225.546 339.502C224.837 339.742 224.247 340.242 223.894 340.901C223.542 341.56 223.454 342.329 223.648 343.051C223.842 343.773 224.304 344.394 224.94 344.787C225.575 345.181 226.337 345.318 227.07 345.171C228.946 344.835 230.898 344.637 232.743 344.15C233.033 344.074 231.981 344.927 233.46 343.86C233.826 343.601 233.46 343.738 233.46 343.769L233.704 343.693H233.46H233.719C233.445 343.693 233.399 343.693 233.612 343.693C233.826 343.693 233.231 343.296 233.811 343.799C233.811 343.799 234.268 344.134 233.887 343.799C234.451 344.195 233.887 343.616 234.055 343.997C234.166 344.178 234.253 344.373 234.314 344.576C234.539 345.467 234.637 346.386 234.603 347.304V351.663C234.603 354.452 234.68 357.24 234.71 360.014C234.71 360.151 234.786 360.898 234.71 360.944C234.634 360.989 234.954 360.364 234.985 360.319L235.152 360.182C235.381 360.09 235.396 360.075 235.152 360.182C234.908 360.288 234.36 360.303 234.924 360.182C233.613 360.25 232.3 360.25 230.989 360.182H227.07C225.973 360.239 224.873 360.167 223.792 359.968C223.638 359.912 223.497 359.824 223.38 359.709C222.801 359.237 223.38 359.846 223.212 359.481C223.212 359.389 222.908 358.825 223.06 359.237C222.899 358.797 222.781 358.343 222.709 357.88C222.709 357.774 222.603 357.118 222.709 357.56C222.709 357.256 222.709 356.936 222.633 356.631C222.42 353.69 222.359 350.733 222.42 347.792C222.42 347.457 222.42 347.121 222.42 346.786C222.42 346.451 222.618 346.177 222.42 346.497C222.42 346.497 222.221 346.725 222.221 346.786C222.221 346.847 222.648 346.603 222.77 346.558C224.188 346.039 225.607 345.476 227.025 344.942C227.762 344.712 228.384 344.212 228.766 343.541C229.148 342.871 229.261 342.081 229.083 341.33C228.837 340.64 228.35 340.061 227.712 339.699C227.073 339.338 226.326 339.219 225.607 339.365Z" fill="black"/>
<path d="M200.842 312.848H205.417C206.192 312.837 206.933 312.532 207.491 311.995C208.038 311.436 208.349 310.688 208.36 309.907C208.345 309.13 208.034 308.389 207.491 307.834C206.933 307.297 206.192 306.992 205.417 306.981H200.842C200.457 306.979 200.076 307.053 199.719 307.199C199.363 307.346 199.04 307.561 198.767 307.833C198.495 308.105 198.28 308.429 198.133 308.785C197.987 309.141 197.912 309.522 197.914 309.907C197.921 310.686 198.227 311.433 198.768 311.995C199.326 312.532 200.068 312.837 200.842 312.848Z" fill="black"/>
<path d="M231.233 305.213C231.444 304.862 231.679 304.526 231.935 304.207L231.462 304.802C232.02 304.089 232.666 303.449 233.384 302.897L232.789 303.354C233.521 302.778 234.326 302.301 235.183 301.937L234.481 302.241L234.71 302.135C235.437 301.913 236.06 301.437 236.464 300.794C236.853 300.109 236.962 299.301 236.769 298.538C236.565 297.798 236.078 297.168 235.412 296.786C235.078 296.58 234.704 296.447 234.316 296.394C233.927 296.342 233.531 296.371 233.155 296.481C232.381 296.778 231.632 297.134 230.913 297.548C230.205 297.997 229.536 298.507 228.916 299.072C227.828 300.005 226.896 301.106 226.156 302.333C225.767 303.023 225.664 303.838 225.866 304.603C225.966 304.976 226.14 305.326 226.377 305.631C226.613 305.936 226.908 306.191 227.245 306.381C227.581 306.571 227.952 306.692 228.336 306.738C228.719 306.783 229.108 306.752 229.48 306.646C230.209 306.419 230.831 305.937 231.233 305.289V305.213Z" fill="black"/>
</g>
<defs>
<clipPath id="clip0_13_642">
<rect width="275" height="268" fill="white" transform="translate(171 242)"/>
</clipPath>
</defs>
</svg>
