<svg width="13" height="24" fill="none" xmlns="http://www.w3.org/2000/svg"><path d="M12.882 23.278a.844.844 0 0 1-.156.39.796.796 0 0 1-1.116.18c-1.269-.91-2.039-1.87-3.232-3.26-.354-.413-.714-.868-.775-1.413-.061-.545.322-1.176.858-1.16a29.302 29.302 0 0 1-5.238-5.84c-.118-.174-.226-.43-.077-.573a.445.445 0 0 1 .41-.037l1.52.376A18.323 18.323 0 0 1 .22 5.727C.05 5.372-.106 4.938.093 4.6a32.643 32.643 0 0 1 4.362 3.943 4.78 4.78 0 0 1-1.852-2.784C2.376 4.64.619.821 1.403 0 5 2.519 8.875 9.368 10.95 13.293c2.254 4.25 2.174 8.088 1.932 9.985Z" fill="#2C8775"/></svg>