<svg width="31" height="31" fill="none" xmlns="http://www.w3.org/2000/svg"><path d="M15.5 11.125a4.375 4.375 0 1 0 0 8.75 4.375 4.375 0 0 0 0-8.75Zm0-2.917a7.291 7.291 0 1 1 0 14.583 7.291 7.291 0 0 1 0-14.583Zm9.48-.364a1.823 1.823 0 1 1-3.646 0 1.823 1.823 0 0 1 3.645 0Zm-9.48-4.01c-3.608 0-4.197.01-5.876.084-1.143.054-1.91.207-2.622.484a4.21 4.21 0 0 0-1.575 1.025c-.456.441-.807.98-1.026 1.575-.277.715-.43 1.48-.483 2.622-.076 1.61-.085 2.173-.085 5.876 0 3.608.01 4.197.085 5.876.054 1.142.207 1.91.483 2.62.248.635.54 1.091 1.023 1.575.492.49.948.784 1.575 1.025.72.28 1.488.434 2.625.486 1.61.076 2.173.085 5.876.085 3.608 0 4.197-.01 5.876-.085 1.14-.054 1.909-.207 2.62-.483a4.26 4.26 0 0 0 1.575-1.023A4.216 4.216 0 0 0 26.598 24c.277-.72.431-1.488.484-2.625.076-1.61.085-2.173.085-5.876 0-3.608-.01-4.197-.085-5.876-.054-1.14-.207-1.91-.484-2.622a4.246 4.246 0 0 0-1.025-1.575 4.206 4.206 0 0 0-1.575-1.026c-.715-.277-1.482-.43-2.622-.483-1.61-.076-2.173-.085-5.876-.085Zm0-2.917c3.962 0 4.457.014 6.011.087 1.553.073 2.61.317 3.541.678a7.11 7.11 0 0 1 2.584 1.682 7.157 7.157 0 0 1 1.682 2.584c.36.929.605 1.988.678 3.54.068 1.555.087 2.05.087 6.012 0 3.962-.014 4.457-.087 6.011-.073 1.553-.318 2.61-.678 3.541a7.12 7.12 0 0 1-1.682 2.584 7.167 7.167 0 0 1-2.584 1.682c-.929.36-1.988.605-3.54.678-1.555.069-2.05.087-6.012.087-3.962 0-4.457-.014-6.011-.087-1.553-.073-2.61-.318-3.541-.678a7.132 7.132 0 0 1-2.584-1.682 7.151 7.151 0 0 1-1.682-2.584c-.361-.929-.605-1.988-.678-3.54-.068-1.555-.087-2.05-.087-6.012 0-3.962.014-4.457.087-6.011.073-1.555.317-2.61.678-3.541a7.117 7.117 0 0 1 1.682-2.584 7.142 7.142 0 0 1 2.584-1.682c.93-.361 1.986-.605 3.54-.678C11.044.936 11.539.917 15.5.917Z" fill="#9777AA"/></svg>