<svg width="1273" height="4988" viewBox="0 0 1273 4988" fill="none" xmlns="http://www.w3.org/2000/svg">
<g clip-path="url(#clip0_39_1168)">
<path d="M1220.79 55.2867C1221.69 63.205 1253.81 71.579 1261.57 71.5377C1253.54 72.9233 1212.65 81.4243 1212.65 81.4243C1212.65 81.4243 1198.47 123.403 1197.74 129.719C1200.67 108.205 1197.16 87.7326 1187.79 72.0698C1174.38 85.1728 1162.51 99.7747 1152.43 115.589C1157.86 93.3386 1168.51 82.93 1177.49 60.975C1178.27 59.0866 1173.85 51.6832 1172.67 50.4945C1167.01 45.816 1170.07 31.6611 1164.47 27.1021L1183.06 39.4286C1184.34 40.4628 1185.93 41.0521 1187.57 41.1077C1190.67 40.4181 1193.45 38.7347 1195.5 36.3137C1205.05 27.4276 1214.59 18.5017 1224.11 9.5359L1215.24 29.3412C1214.27 31.5141 1213.3 33.961 1214.05 35.7004C1214.8 37.4398 1216.7 37.6272 1218.51 37.6769C1226.98 37.6186 1235.2 34.8331 1241.96 29.7323L1220.79 55.2867Z" fill="#F7B822"/>
</g>
<g clip-path="url(#clip1_39_1168)">
<path d="M1220.79 2562.29C1221.69 2570.2 1253.81 2578.58 1261.57 2578.54C1253.54 2579.92 1212.65 2588.42 1212.65 2588.42C1212.65 2588.42 1198.47 2630.4 1197.74 2636.72C1200.67 2615.21 1197.16 2594.73 1187.79 2579.07C1174.38 2592.17 1162.51 2606.77 1152.43 2622.59C1157.86 2600.34 1168.51 2589.93 1177.49 2567.98C1178.27 2566.09 1173.85 2558.68 1172.67 2557.49C1167.01 2552.82 1170.07 2538.66 1164.47 2534.1L1183.06 2546.43C1184.34 2547.46 1185.93 2548.05 1187.57 2548.11C1190.67 2547.42 1193.45 2545.73 1195.5 2543.31C1205.05 2534.43 1214.59 2525.5 1224.11 2516.54L1215.24 2536.34C1214.27 2538.51 1213.3 2540.96 1214.05 2542.7C1214.8 2544.44 1216.7 2544.63 1218.51 2544.68C1226.98 2544.62 1235.2 2541.83 1241.96 2536.73L1220.79 2562.29Z" fill="#F7B822"/>
</g>
<g clip-path="url(#clip2_39_1168)">
<path d="M1220.79 1188.29C1221.69 1196.21 1253.81 1204.58 1261.57 1204.54C1253.54 1205.92 1212.65 1214.42 1212.65 1214.42C1212.65 1214.42 1198.47 1256.4 1197.74 1262.72C1200.67 1241.21 1197.16 1220.73 1187.79 1205.07C1174.38 1218.17 1162.51 1232.77 1152.43 1248.59C1157.86 1226.34 1168.51 1215.93 1177.49 1193.98C1178.27 1192.09 1173.85 1184.68 1172.67 1183.49C1167.01 1178.82 1170.07 1164.66 1164.47 1160.1L1183.06 1172.43C1184.34 1173.46 1185.93 1174.05 1187.57 1174.11C1190.67 1173.42 1193.45 1171.73 1195.5 1169.31C1205.05 1160.43 1214.59 1151.5 1224.11 1142.54L1215.24 1162.34C1214.27 1164.51 1213.3 1166.96 1214.05 1168.7C1214.8 1170.44 1216.7 1170.63 1218.51 1170.68C1226.98 1170.62 1235.2 1167.83 1241.96 1162.73L1220.79 1188.29Z" fill="#F7B822"/>
</g>
<g clip-path="url(#clip3_39_1168)">
<path d="M1220.79 2978.29C1221.69 2986.2 1253.81 2994.58 1261.57 2994.54C1253.54 2995.92 1212.65 3004.42 1212.65 3004.42C1212.65 3004.42 1198.47 3046.4 1197.74 3052.72C1200.67 3031.21 1197.16 3010.73 1187.79 2995.07C1174.38 3008.17 1162.51 3022.77 1152.43 3038.59C1157.86 3016.34 1168.51 3005.93 1177.49 2983.98C1178.27 2982.09 1173.85 2974.68 1172.67 2973.49C1167.01 2968.82 1170.07 2954.66 1164.47 2950.1L1183.06 2962.43C1184.34 2963.46 1185.93 2964.05 1187.57 2964.11C1190.67 2963.42 1193.45 2961.73 1195.5 2959.31C1205.05 2950.43 1214.59 2941.5 1224.11 2932.54L1215.24 2952.34C1214.27 2954.51 1213.3 2956.96 1214.05 2958.7C1214.8 2960.44 1216.7 2960.63 1218.51 2960.68C1226.98 2960.62 1235.2 2957.83 1241.96 2952.73L1220.79 2978.29Z" fill="#F7B822"/>
</g>
<g clip-path="url(#clip4_39_1168)">
<path d="M1220.79 3911.29C1221.69 3919.2 1253.81 3927.58 1261.57 3927.54C1253.54 3928.92 1212.65 3937.42 1212.65 3937.42C1212.65 3937.42 1198.47 3979.4 1197.74 3985.72C1200.67 3964.21 1197.16 3943.73 1187.79 3928.07C1174.38 3941.17 1162.51 3955.77 1152.43 3971.59C1157.86 3949.34 1168.51 3938.93 1177.49 3916.98C1178.27 3915.09 1173.85 3907.68 1172.67 3906.49C1167.01 3901.82 1170.07 3887.66 1164.47 3883.1L1183.06 3895.43C1184.34 3896.46 1185.93 3897.05 1187.57 3897.11C1190.67 3896.42 1193.45 3894.73 1195.5 3892.31C1205.05 3883.43 1214.59 3874.5 1224.11 3865.54L1215.24 3885.34C1214.27 3887.51 1213.3 3889.96 1214.05 3891.7C1214.8 3893.44 1216.7 3893.63 1218.51 3893.68C1226.98 3893.62 1235.2 3890.83 1241.96 3885.73L1220.79 3911.29Z" fill="#F7B822"/>
</g>
<g clip-path="url(#clip5_39_1168)">
<path d="M1220.79 4212.29C1221.69 4220.2 1253.81 4228.58 1261.57 4228.54C1253.54 4229.92 1212.65 4238.42 1212.65 4238.42C1212.65 4238.42 1198.47 4280.4 1197.74 4286.72C1200.67 4265.21 1197.16 4244.73 1187.79 4229.07C1174.38 4242.17 1162.51 4256.77 1152.43 4272.59C1157.86 4250.34 1168.51 4239.93 1177.49 4217.98C1178.27 4216.09 1173.85 4208.68 1172.67 4207.49C1167.01 4202.82 1170.07 4188.66 1164.47 4184.1L1183.06 4196.43C1184.34 4197.46 1185.93 4198.05 1187.57 4198.11C1190.67 4197.42 1193.45 4195.73 1195.5 4193.31C1205.05 4184.43 1214.59 4175.5 1224.11 4166.54L1215.24 4186.34C1214.27 4188.51 1213.3 4190.96 1214.05 4192.7C1214.8 4194.44 1216.7 4194.63 1218.51 4194.68C1226.98 4194.62 1235.2 4191.83 1241.96 4186.73L1220.79 4212.29Z" fill="#F7B822"/>
</g>
<g clip-path="url(#clip6_39_1168)">
<path d="M1220.79 4899.29C1221.69 4907.2 1253.81 4915.58 1261.57 4915.54C1253.54 4916.92 1212.65 4925.42 1212.65 4925.42C1212.65 4925.42 1198.47 4967.4 1197.74 4973.72C1200.67 4952.21 1197.16 4931.73 1187.79 4916.07C1174.38 4929.17 1162.51 4943.77 1152.43 4959.59C1157.86 4937.34 1168.51 4926.93 1177.49 4904.98C1178.27 4903.09 1173.85 4895.68 1172.67 4894.49C1167.01 4889.82 1170.07 4875.66 1164.47 4871.1L1183.06 4883.43C1184.34 4884.46 1185.93 4885.05 1187.57 4885.11C1190.67 4884.42 1193.45 4882.73 1195.5 4880.31C1205.05 4871.43 1214.59 4862.5 1224.11 4853.54L1215.24 4873.34C1214.27 4875.51 1213.3 4877.96 1214.05 4879.7C1214.8 4881.44 1216.7 4881.63 1218.51 4881.68C1226.98 4881.62 1235.2 4878.83 1241.96 4873.73L1220.79 4899.29Z" fill="#F7B822"/>
</g>
<g clip-path="url(#clip7_39_1168)">
<path d="M93.8767 703.317C109.319 707.429 148.44 653.585 154.038 639.064C150.756 655.063 136.729 737.628 136.729 737.628C136.729 737.628 204.74 794.813 216 800.788C177.973 779.585 137.18 771.168 101.083 777.207C115.741 811.835 134.329 844.669 156.483 875.064C118.906 848.656 107.26 821.156 72.8366 788.323C69.8768 785.496 52.8259 788.323 49.7374 789.672C36.8687 796.805 12.6757 780.741 0.0644531 787.873L36.6757 762.172C39.5448 760.533 41.803 758.008 43.11 754.976C44.086 748.692 42.9789 742.262 39.9573 736.664C30.3487 712.334 20.6542 688.003 10.8741 663.673L41.3728 694.707C44.7187 698.112 48.5792 701.711 52.3755 701.582C56.1717 701.454 57.9089 698.048 59.3245 694.707C65.4089 678.85 66.2211 661.458 61.6409 645.104L93.8767 703.317Z" fill="#F7B822"/>
</g>
<g clip-path="url(#clip8_39_1168)">
<path d="M62.1497 1983.51C72.3731 1986.23 98.2724 1950.64 101.978 1941.04C99.8059 1951.62 90.5196 2006.19 90.5196 2006.19C90.5196 2006.19 135.545 2043.99 143 2047.94C117.825 2033.93 90.8179 2028.37 66.9207 2032.36C76.6243 2055.25 88.9303 2076.95 103.597 2097.04C78.7202 2079.59 71.01 2061.41 48.2203 2039.71C46.2608 2037.84 34.9725 2039.71 32.9278 2040.6C24.4083 2045.31 8.3916 2034.69 0.0424805 2039.41L24.2805 2022.42C26.18 2021.34 27.6749 2019.67 28.5403 2017.66C29.1864 2013.51 28.4535 2009.26 26.453 2005.56C20.0918 1989.47 13.6737 1973.39 7.19884 1957.31L27.3902 1977.82C29.6052 1980.07 32.1611 1982.45 34.6743 1982.37C37.1876 1982.28 38.3376 1980.03 39.2748 1977.82C43.3029 1967.34 43.8407 1955.85 40.8084 1945.03L62.1497 1983.51Z" fill="#F7B822"/>
</g>
<g clip-path="url(#clip9_39_1168)">
<path d="M62.1497 3490.51C72.3731 3493.23 98.2724 3457.64 101.978 3448.04C99.8059 3458.62 90.5196 3513.19 90.5196 3513.19C90.5196 3513.19 135.545 3550.99 143 3554.94C117.825 3540.93 90.8179 3535.37 66.9207 3539.36C76.6243 3562.25 88.9303 3583.95 103.597 3604.04C78.7202 3586.59 71.01 3568.41 48.2203 3546.71C46.2608 3544.84 34.9725 3546.71 32.9278 3547.6C24.4083 3552.31 8.3916 3541.69 0.0424805 3546.41L24.2805 3529.42C26.18 3528.34 27.6749 3526.67 28.5403 3524.66C29.1864 3520.51 28.4535 3516.26 26.453 3512.56C20.0918 3496.47 13.6737 3480.39 7.19884 3464.31L27.3902 3484.82C29.6052 3487.07 32.1611 3489.45 34.6743 3489.37C37.1876 3489.28 38.3376 3487.03 39.2748 3484.82C43.3029 3474.34 43.8407 3462.85 40.8084 3452.03L62.1497 3490.51Z" fill="#F7B822"/>
</g>
<g clip-path="url(#clip10_39_1168)">
<path d="M62.1497 4640.51C72.3731 4643.23 98.2724 4607.64 101.978 4598.04C99.8059 4608.62 90.5196 4663.19 90.5196 4663.19C90.5196 4663.19 135.545 4700.99 143 4704.94C117.825 4690.93 90.8179 4685.37 66.9207 4689.36C76.6243 4712.25 88.9303 4733.95 103.597 4754.04C78.7202 4736.59 71.01 4718.41 48.2203 4696.71C46.2608 4694.84 34.9725 4696.71 32.9278 4697.6C24.4083 4702.31 8.3916 4691.69 0.0424805 4696.41L24.2805 4679.42C26.18 4678.34 27.6749 4676.67 28.5403 4674.66C29.1864 4670.51 28.4535 4666.26 26.453 4662.56C20.0918 4646.47 13.6737 4630.39 7.19884 4614.31L27.3902 4634.82C29.6052 4637.07 32.1611 4639.45 34.6743 4639.37C37.1876 4639.28 38.3376 4637.03 39.2748 4634.82C43.3029 4624.34 43.8407 4612.85 40.8084 4602.03L62.1497 4640.51Z" fill="#F7B822"/>
</g>
<defs>
<clipPath id="clip0_39_1168">
<rect width="107.715" height="117.689" fill="white" transform="translate(1233.58) rotate(68.6135)"/>
</clipPath>
<clipPath id="clip1_39_1168">
<rect width="107.715" height="117.689" fill="white" transform="translate(1233.58 2507) rotate(68.6135)"/>
</clipPath>
<clipPath id="clip2_39_1168">
<rect width="107.715" height="117.689" fill="white" transform="translate(1233.58 1133) rotate(68.6135)"/>
</clipPath>
<clipPath id="clip3_39_1168">
<rect width="107.715" height="117.689" fill="white" transform="translate(1233.58 2923) rotate(68.6135)"/>
</clipPath>
<clipPath id="clip4_39_1168">
<rect width="107.715" height="117.689" fill="white" transform="translate(1233.58 3856) rotate(68.6135)"/>
</clipPath>
<clipPath id="clip5_39_1168">
<rect width="107.715" height="117.689" fill="white" transform="translate(1233.58 4157) rotate(68.6135)"/>
</clipPath>
<clipPath id="clip6_39_1168">
<rect width="107.715" height="117.689" fill="white" transform="translate(1233.58 4844) rotate(68.6135)"/>
</clipPath>
<clipPath id="clip7_39_1168">
<rect width="216" height="236" fill="white" transform="translate(0 639)"/>
</clipPath>
<clipPath id="clip8_39_1168">
<rect width="143" height="156" fill="white" transform="translate(0 1941)"/>
</clipPath>
<clipPath id="clip9_39_1168">
<rect width="143" height="156" fill="white" transform="translate(0 3448)"/>
</clipPath>
<clipPath id="clip10_39_1168">
<rect width="143" height="156" fill="white" transform="translate(0 4598)"/>
</clipPath>
</defs>
</svg>
