<svg width="1310" height="8346" fill="none" xmlns="http://www.w3.org/2000/svg"><g clip-path="url(#a)"><path d="M1220.79 55.287c.9 7.918 33.02 16.292 40.78 16.25-8.03 1.386-48.92 9.887-48.92 9.887s-14.18 41.979-14.91 48.295c2.93-21.514-.58-41.986-9.95-57.65a244.876 244.876 0 0 0-35.36 43.52c5.43-22.25 16.08-32.659 25.06-54.614.78-1.888-3.64-9.292-4.82-10.48-5.66-4.679-2.6-18.834-8.2-23.393l18.59 12.327a7.6 7.6 0 0 0 4.51 1.679c3.1-.69 5.88-2.373 7.93-4.794 9.55-8.886 19.09-17.812 28.61-26.778l-8.87 19.805c-.97 2.173-1.94 4.62-1.19 6.36.75 1.739 2.65 1.926 4.46 1.976a39.375 39.375 0 0 0 23.45-7.945l-21.17 25.555Z" fill="#F7B822"/></g><g clip-path="url(#b)"><path d="M1220.79 2562.29c.9 7.91 33.02 16.29 40.78 16.25-8.03 1.38-48.92 9.88-48.92 9.88s-14.18 41.98-14.91 48.3c2.93-21.51-.58-41.99-9.95-57.65a244.57 244.57 0 0 0-35.36 43.52c5.43-22.25 16.08-32.66 25.06-54.61.78-1.89-3.64-9.3-4.82-10.49-5.66-4.67-2.6-18.83-8.2-23.39l18.59 12.33a7.656 7.656 0 0 0 4.51 1.68c3.1-.69 5.88-2.38 7.93-4.8 9.55-8.88 19.09-17.81 28.61-26.77l-8.87 19.8c-.97 2.17-1.94 4.62-1.19 6.36.75 1.74 2.65 1.93 4.46 1.98 8.47-.06 16.69-2.85 23.45-7.95l-21.17 25.56Z" fill="#F7B822"/></g><g clip-path="url(#c)"><path d="M1220.79 1188.29c.9 7.92 33.02 16.29 40.78 16.25-8.03 1.38-48.92 9.88-48.92 9.88s-14.18 41.98-14.91 48.3c2.93-21.51-.58-41.99-9.95-57.65a244.57 244.57 0 0 0-35.36 43.52c5.43-22.25 16.08-32.66 25.06-54.61.78-1.89-3.64-9.3-4.82-10.49-5.66-4.67-2.6-18.83-8.2-23.39l18.59 12.33a7.656 7.656 0 0 0 4.51 1.68c3.1-.69 5.88-2.38 7.93-4.8 9.55-8.88 19.09-17.81 28.61-26.77l-8.87 19.8c-.97 2.17-1.94 4.62-1.19 6.36.75 1.74 2.65 1.93 4.46 1.98 8.47-.06 16.69-2.85 23.45-7.95l-21.17 25.56Z" fill="#F7B822"/></g><g clip-path="url(#d)"><path d="M1220.79 2978.29c.9 7.91 33.02 16.29 40.78 16.25-8.03 1.38-48.92 9.88-48.92 9.88s-14.18 41.98-14.91 48.3c2.93-21.51-.58-41.99-9.95-57.65a244.57 244.57 0 0 0-35.36 43.52c5.43-22.25 16.08-32.66 25.06-54.61.78-1.89-3.64-9.3-4.82-10.49-5.66-4.67-2.6-18.83-8.2-23.39l18.59 12.33a7.656 7.656 0 0 0 4.51 1.68c3.1-.69 5.88-2.38 7.93-4.8 9.55-8.88 19.09-17.81 28.61-26.77l-8.87 19.8c-.97 2.17-1.94 4.62-1.19 6.36.75 1.74 2.65 1.93 4.46 1.98 8.47-.06 16.69-2.85 23.45-7.95l-21.17 25.56Z" fill="#F7B822"/></g><g clip-path="url(#e)"><path d="M1220.79 3911.29c.9 7.91 33.02 16.29 40.78 16.25-8.03 1.38-48.92 9.88-48.92 9.88s-14.18 41.98-14.91 48.3c2.93-21.51-.58-41.99-9.95-57.65a244.57 244.57 0 0 0-35.36 43.52c5.43-22.25 16.08-32.66 25.06-54.61.78-1.89-3.64-9.3-4.82-10.49-5.66-4.67-2.6-18.83-8.2-23.39l18.59 12.33a7.656 7.656 0 0 0 4.51 1.68c3.1-.69 5.88-2.38 7.93-4.8 9.55-8.88 19.09-17.81 28.61-26.77l-8.87 19.8c-.97 2.17-1.94 4.62-1.19 6.36.75 1.74 2.65 1.93 4.46 1.98 8.47-.06 16.69-2.85 23.45-7.95l-21.17 25.56Z" fill="#F7B822"/></g><g clip-path="url(#f)"><path d="M1220.79 4212.29c.9 7.91 33.02 16.29 40.78 16.25-8.03 1.38-48.92 9.88-48.92 9.88s-14.18 41.98-14.91 48.3c2.93-21.51-.58-41.99-9.95-57.65a244.57 244.57 0 0 0-35.36 43.52c5.43-22.25 16.08-32.66 25.06-54.61.78-1.89-3.64-9.3-4.82-10.49-5.66-4.67-2.6-18.83-8.2-23.39l18.59 12.33a7.656 7.656 0 0 0 4.51 1.68c3.1-.69 5.88-2.38 7.93-4.8 9.55-8.88 19.09-17.81 28.61-26.77l-8.87 19.8c-.97 2.17-1.94 4.62-1.19 6.36.75 1.74 2.65 1.93 4.46 1.98 8.47-.06 16.69-2.85 23.45-7.95l-21.17 25.56Z" fill="#F7B822"/></g><g clip-path="url(#g)"><path d="M1220.79 4899.29c.9 7.91 33.02 16.29 40.78 16.25-8.03 1.38-48.92 9.88-48.92 9.88s-14.18 41.98-14.91 48.3c2.93-21.51-.58-41.99-9.95-57.65a244.57 244.57 0 0 0-35.36 43.52c5.43-22.25 16.08-32.66 25.06-54.61.78-1.89-3.64-9.3-4.82-10.49-5.66-4.67-2.6-18.83-8.2-23.39l18.59 12.33a7.656 7.656 0 0 0 4.51 1.68c3.1-.69 5.88-2.38 7.93-4.8 9.55-8.88 19.09-17.81 28.61-26.77l-8.87 19.8c-.97 2.17-1.94 4.62-1.19 6.36.75 1.74 2.65 1.93 4.46 1.98 8.47-.06 16.69-2.85 23.45-7.95l-21.17 25.56Z" fill="#F7B822"/></g><g clip-path="url(#h)"><path d="M143.791 6543.29c.899 7.91 33.015 16.29 40.775 16.25-8.025 1.38-48.914 9.88-48.914 9.88s-14.186 41.98-14.913 48.3c2.93-21.51-.579-41.99-9.948-57.65a244.663 244.663 0 0 0-35.365 43.52c5.43-22.25 16.081-32.66 25.067-54.61.774-1.89-3.639-9.3-4.827-10.49-5.652-4.67-2.593-18.83-8.198-23.39l18.592 12.33a7.655 7.655 0 0 0 4.512 1.68c3.095-.69 5.88-2.38 7.929-4.8a6373.11 6373.11 0 0 0 28.604-26.77l-8.864 19.8c-.973 2.17-1.941 4.62-1.191 6.36.75 1.74 2.647 1.93 4.456 1.98a39.413 39.413 0 0 0 23.454-7.95l-21.169 25.56Z" fill="#F7B822"/></g><g clip-path="url(#i)"><path d="M143.791 7956.29c.899 7.91 33.015 16.29 40.775 16.25-8.025 1.38-48.914 9.88-48.914 9.88s-14.186 41.98-14.913 48.3c2.93-21.51-.579-41.99-9.948-57.65a244.663 244.663 0 0 0-35.365 43.52c5.43-22.25 16.081-32.66 25.067-54.61.774-1.89-3.639-9.3-4.827-10.49-5.652-4.67-2.593-18.83-8.198-23.39l18.592 12.33a7.655 7.655 0 0 0 4.512 1.68c3.095-.69 5.88-2.38 7.929-4.8a6373.11 6373.11 0 0 0 28.604-26.77l-8.864 19.8c-.973 2.17-1.941 4.62-1.191 6.36.75 1.74 2.647 1.93 4.456 1.98a39.413 39.413 0 0 0 23.454-7.95l-21.169 25.56Z" fill="#F7B822"/></g><g clip-path="url(#j)"><path d="M93.877 703.317c15.442 4.112 54.563-49.732 60.161-64.253-3.282 15.999-17.309 98.564-17.309 98.564s68.011 57.185 79.271 63.16c-38.027-21.203-78.82-29.62-114.917-23.581a491.246 491.246 0 0 0 55.4 97.857c-37.577-26.408-49.223-53.908-83.646-86.741-2.96-2.827-20.011 0-23.1 1.349-12.868 7.133-37.061-8.931-49.673-1.799l36.612-25.701a15.233 15.233 0 0 0 6.434-7.196 29.135 29.135 0 0 0-3.153-18.312 12916.513 12916.513 0 0 0-29.083-72.991l30.499 31.034c3.346 3.405 7.206 7.004 11.003 6.875 3.796-.128 5.533-3.534 6.948-6.875a78.99 78.99 0 0 0 2.317-49.603l32.236 58.213Z" fill="#F7B822"/></g><g clip-path="url(#k)"><path d="M62.15 1983.51c10.223 2.72 36.122-32.87 39.828-42.47-2.172 10.58-11.458 65.15-11.458 65.15s45.025 37.8 52.48 41.75c-25.175-14.01-52.182-19.57-76.08-15.58a324.47 324.47 0 0 0 36.677 64.68c-24.877-17.45-32.587-35.63-55.377-57.33-1.96-1.87-13.248 0-15.292.89-8.52 4.71-24.536-5.91-32.886-1.19l24.238-16.99a10.04 10.04 0 0 0 4.26-4.76c.646-4.15-.087-8.4-2.087-12.1a8232.678 8232.678 0 0 0-19.254-48.25l20.191 20.51c2.215 2.25 4.771 4.63 7.284 4.55 2.514-.09 3.664-2.34 4.6-4.55a52.139 52.139 0 0 0 1.534-32.79l21.342 38.48Z" fill="#F7B822"/></g><g clip-path="url(#l)"><path d="M62.15 3490.51c10.223 2.72 36.122-32.87 39.828-42.47-2.172 10.58-11.458 65.15-11.458 65.15s45.025 37.8 52.48 41.75c-25.175-14.01-52.182-19.57-76.08-15.58a324.47 324.47 0 0 0 36.677 64.68c-24.877-17.45-32.587-35.63-55.377-57.33-1.96-1.87-13.248 0-15.292.89-8.52 4.71-24.536-5.91-32.886-1.19l24.238-16.99a10.04 10.04 0 0 0 4.26-4.76c.646-4.15-.087-8.4-2.087-12.1a8232.678 8232.678 0 0 0-19.254-48.25l20.191 20.51c2.215 2.25 4.771 4.63 7.284 4.55 2.514-.09 3.664-2.34 4.6-4.55a52.139 52.139 0 0 0 1.534-32.79l21.342 38.48Z" fill="#F7B822"/></g><g clip-path="url(#m)"><path d="M62.15 4640.51c10.223 2.72 36.122-32.87 39.828-42.47-2.172 10.58-11.458 65.15-11.458 65.15s45.025 37.8 52.48 41.75c-25.175-14.01-52.182-19.57-76.08-15.58a324.47 324.47 0 0 0 36.677 64.68c-24.877-17.45-32.587-35.63-55.377-57.33-1.96-1.87-13.248 0-15.292.89-8.52 4.71-24.536-5.91-32.886-1.19l24.238-16.99a10.04 10.04 0 0 0 4.26-4.76c.646-4.15-.087-8.4-2.087-12.1a8232.678 8232.678 0 0 0-19.254-48.25l20.191 20.51c2.215 2.25 4.771 4.63 7.284 4.55 2.514-.09 3.664-2.34 4.6-4.55a52.139 52.139 0 0 0 1.534-32.79l21.342 38.48Z" fill="#F7B822"/></g><g clip-path="url(#n)"><path d="M1229.15 7134.51c10.22 2.72 36.12-32.87 39.83-42.47-2.17 10.58-11.46 65.15-11.46 65.15s45.03 37.8 52.48 41.75c-25.18-14.01-52.18-19.57-76.08-15.58 9.7 22.89 22.01 44.59 36.68 64.68-24.88-17.45-32.59-35.63-55.38-57.33-1.96-1.87-13.25 0-15.29.89-8.52 4.71-24.54-5.91-32.89-1.19l24.24-16.99c1.9-1.08 3.39-2.75 4.26-4.76.65-4.15-.09-8.4-2.09-12.1-6.36-16.09-12.78-32.17-19.25-48.25l20.19 20.51c2.22 2.25 4.77 4.63 7.28 4.55 2.52-.09 3.67-2.34 4.6-4.55a52.143 52.143 0 0 0 1.54-32.79l21.34 38.48Z" fill="#F7B822"/></g><g clip-path="url(#o)"><path d="M1229.15 6209.51c10.22 2.72 36.12-32.87 39.83-42.47-2.17 10.58-11.46 65.15-11.46 65.15s45.03 37.8 52.48 41.75c-25.18-14.01-52.18-19.57-76.08-15.58 9.7 22.89 22.01 44.59 36.68 64.68-24.88-17.45-32.59-35.63-55.38-57.33-1.96-1.87-13.25 0-15.29.89-8.52 4.71-24.54-5.91-32.89-1.19l24.24-16.99c1.9-1.08 3.39-2.75 4.26-4.76.65-4.15-.09-8.4-2.09-12.1-6.36-16.09-12.78-32.17-19.25-48.25l20.19 20.51c2.22 2.25 4.77 4.63 7.28 4.55 2.52-.09 3.67-2.34 4.6-4.55a52.143 52.143 0 0 0 1.54-32.79l21.34 38.48Z" fill="#F7B822"/></g><g clip-path="url(#p)"><path d="M1229.15 8232.51c10.22 2.72 36.12-32.87 39.83-42.47-2.17 10.58-11.46 65.15-11.46 65.15s45.03 37.8 52.48 41.75c-25.18-14.01-52.18-19.57-76.08-15.58 9.7 22.89 22.01 44.59 36.68 64.68-24.88-17.45-32.59-35.63-55.38-57.33-1.96-1.87-13.25 0-15.29.89-8.52 4.71-24.54-5.91-32.89-1.19l24.24-16.99c1.9-1.08 3.39-2.75 4.26-4.76.65-4.15-.09-8.4-2.09-12.1-6.36-16.09-12.78-32.17-19.25-48.25l20.19 20.51c2.22 2.25 4.77 4.63 7.28 4.55 2.52-.09 3.67-2.34 4.6-4.55a52.143 52.143 0 0 0 1.54-32.79l21.34 38.48Z" fill="#F7B822"/></g><defs><clipPath id="i"><path fill="#fff" transform="rotate(68.614 -5711.459 4065.243)" d="M0 0h107.715v117.689H0z"/></clipPath><clipPath id="a"><path fill="#fff" transform="rotate(68.614 616.79 903.952)" d="M0 0h107.715v117.689H0z"/></clipPath><clipPath id="c"><path fill="#fff" transform="rotate(68.614 -213.458 1470.452)" d="M0 0h107.715v117.689H0z"/></clipPath><clipPath id="d"><path fill="#fff" transform="rotate(68.614 -1525.147 2365.452)" d="M0 0h107.715v117.689H0z"/></clipPath><clipPath id="e"><path fill="#fff" transform="rotate(68.614 -2208.837 2831.952)" d="M0 0h107.715v117.689H0z"/></clipPath><clipPath id="f"><path fill="#fff" transform="rotate(68.614 -2429.406 2982.452)" d="M0 0h107.715v117.689H0z"/></clipPath><clipPath id="g"><path fill="#fff" transform="rotate(68.614 -2932.83 3325.952)" d="M0 0h107.715v117.689H0z"/></clipPath><clipPath id="h"><path fill="#fff" transform="rotate(68.614 -4676.03 3358.743)" d="M0 0h107.715v117.689H0z"/></clipPath><clipPath id="b"><path fill="#fff" transform="rotate(68.614 -1220.307 2157.452)" d="M0 0h107.715v117.689H0z"/></clipPath><clipPath id="j"><path fill="#fff" transform="translate(0 639)" d="M0 0h216v236H0z"/></clipPath><clipPath id="k"><path fill="#fff" transform="translate(0 1941)" d="M0 0h143v156H0z"/></clipPath><clipPath id="l"><path fill="#fff" transform="translate(0 3448)" d="M0 0h143v156H0z"/></clipPath><clipPath id="m"><path fill="#fff" transform="translate(0 4598)" d="M0 0h143v156H0z"/></clipPath><clipPath id="n"><path fill="#fff" transform="translate(1167 7092)" d="M0 0h143v156H0z"/></clipPath><clipPath id="o"><path fill="#fff" transform="translate(1167 6167)" d="M0 0h143v156H0z"/></clipPath><clipPath id="p"><path fill="#fff" transform="translate(1167 8190)" d="M0 0h143v156H0z"/></clipPath></defs></svg>